<svg width="838px" height="224px" viewBox="0 0 838 224" version="1.1" xmlns="http://www.w3.org/2000/svg" xmlns:xlink="http://www.w3.org/1999/xlink">
    <g id="Page-1" stroke="none" stroke-width="1" fill="none" fill-rule="evenodd">
        <g id="logo-01" fill-rule="nonzero">
            <g id="shadow" transform="translate(11.003626, 26.996543)" fill="#000000">
                <path d="M37.4938509,191.753457 C32.835363,190.886241 28.5654936,188.581701 25.2838509,185.163457 C21.9127534,181.729281 20.0795555,177.074113 20.2038509,172.263457 L20.2038509,56.6934569 C16.9485834,57.2499778 13.6012312,56.8180613 10.5938509,55.4534569 C7.71047321,54.2597632 5.1655103,52.3742238 3.18385085,49.9634569 C1.34921206,47.6765746 0.250918572,44.8872578 0.0338508507,41.9634569 C-0.205565904,38.8135363 0.832365065,35.6997434 2.91385085,33.3234569 C5.26597232,30.2314833 8.14713675,27.5805412 11.4238509,25.4934569 C14.7069278,23.3936051 18.203076,21.647207 21.8538509,20.2834569 C25.5712715,18.8918215 29.3761386,17.7460187 33.2438509,16.8534569 C37.1705175,15.9334569 40.9671842,15.1101236 44.6338509,14.3834569 C54.7970498,12.7386199 65.1212101,12.3222961 75.3838509,13.1434569 C85.3645276,13.9062774 95.1722654,16.1753072 104.473851,19.8734569 C113.671515,23.5565848 122.18116,28.7665026 129.643851,35.2834569 C137.450881,42.1572112 143.758575,50.5652004 148.173851,59.9834569 C151.074892,65.9570115 153.195621,72.2788688 154.483851,78.7934569 C155.758597,85.261349 156.494455,91.823864 156.683851,98.4134569 C156.897183,106.847976 155.886675,115.268877 153.683851,123.413457 C149.322399,139.455868 140.352297,153.867137 127.883851,164.863457 C121.58098,170.400484 114.532243,175.025586 106.943851,178.603457 C100.064658,181.744942 92.8327849,184.048129 85.4038509,185.463457 C77.8038509,186.923457 70.3438509,188.203457 63.0238509,189.303457 C59.3638509,189.850124 55.4771842,190.44679 51.3638509,191.093457 C47.4154793,191.733265 43.4236413,192.06759 39.4238509,192.093457 L37.4938509,191.753457 Z M67.1438509,45.9834569 C64.7638509,45.9834569 62.5238509,46.0834569 60.4238509,46.2634569 C58.3238509,46.4434569 56.0738509,46.7234569 53.6938509,47.0834569 L53.6938509,157.163457 C54.6185464,157.183625 55.5421959,157.089581 56.4438509,156.883457 C57.1629507,156.700383 57.9018182,156.606345 58.6438509,156.603457 C59.294929,156.616906 59.9437304,156.522289 60.5638509,156.323457 C63.1238509,155.963457 65.2305175,155.690124 66.8838509,155.503457 C68.5238509,155.323457 70.0838509,155.093457 71.5438509,154.813457 C73.0038509,154.533457 74.5438509,154.223457 76.0738509,153.813457 C77.6038509,153.403457 79.4138509,152.993457 81.4338509,152.443457 C92.0471842,149.703457 100.417184,145.370124 106.543851,139.443457 C112.670518,133.51679 117.290518,125.32679 120.403851,114.873457 C122.403886,108.955056 123.335061,102.728037 123.153851,96.4834569 C122.995061,90.3890952 121.836302,84.3621989 119.723851,78.6434569 C117.611605,72.963821 114.495361,67.7102412 110.523851,63.1334569 C106.429114,58.4169213 101.377124,54.6262244 95.7038509,52.0134569 C91.2139278,49.8958882 86.4518303,48.4117292 81.5538509,47.6034569 C76.8938509,46.8967902 72.0905175,46.3567902 67.1438509,45.9834569 Z" id="Shape"></path>
                <path d="M157.093851,115.713457 C158.397158,110.343559 160.191375,105.104847 162.453851,100.063457 C164.753188,94.906214 167.556827,89.9889598 170.823851,85.3834569 C174.078449,80.7502608 177.805075,76.4673215 181.943851,72.6034569 C185.907012,68.8674253 190.390176,65.7248318 195.253851,63.2734569 C203.067173,59.0647768 211.770834,56.778309 220.643851,56.6034569 C228.836126,56.4252019 236.959399,58.1360851 244.383851,61.6034569 C251.791798,65.1534727 258.205861,70.48192 263.053851,77.1134569 C268.345748,84.3792279 271.828743,92.8021798 273.213851,101.683457 C274.091989,107.54547 274.596341,113.457407 274.723851,119.383457 C274.784996,125.242305 274.184527,131.089329 272.933851,136.813457 C270.862603,145.987716 267.094549,154.693923 261.823851,162.483457 C256.475622,170.746596 249.704062,177.995551 241.823851,183.893457 C234.2758,189.556813 225.550393,193.449582 216.293851,195.283457 C207.053851,197.11679 197.767184,195.653457 188.433851,190.893457 C184.388713,188.985119 180.56573,186.637673 177.033851,183.893457 C173.566609,181.155535 170.476509,177.971286 167.843851,174.423457 C164.829237,170.58086 162.377902,166.328065 160.563851,161.793457 C158.804898,157.333254 157.384217,152.746961 156.313851,148.073457 C155.027947,143.023934 154.552021,137.80225 154.903851,132.603457 C155.250304,127.494079 155.89137,122.408956 156.823851,117.373457 L157.093851,115.713457 Z M190.033851,121.473457 C189.483851,124.403457 189.033851,127.283457 188.663851,130.123457 C188.293822,132.994918 188.293822,135.901995 188.663851,138.773457 C189.152424,142.781963 190.311941,146.679699 192.093851,150.303457 C193.664191,153.572229 196.021331,156.40011 198.953851,158.533457 C201.805763,160.556012 205.207722,161.658596 208.703851,161.693457 C212.363851,161.78679 216.297184,160.643457 220.503851,158.263457 C225.837184,155.150124 230.413851,150.343457 234.233851,143.843457 C237.976186,137.632244 240.406157,130.720098 241.373851,123.533457 C242.309736,116.787495 241.553727,109.914686 239.173851,103.533457 C236.793851,97.2201236 232.127184,92.6901236 225.173851,89.9434569 C220.825727,89.9010749 216.519016,90.7910603 212.543851,92.5534569 C208.822138,94.2192474 205.433841,96.5470074 202.543851,99.4234569 C199.606655,102.38383 197.111046,105.751723 195.133851,109.423457 C193.02896,113.256464 191.320134,117.293985 190.033851,121.473457 L190.033851,121.473457 Z" id="Shape"></path>
                <path d="M278.343851,115.713457 C279.64371,110.34383 281.434583,105.105107 283.693851,100.063457 C286.000885,94.910116 288.804105,89.9935965 292.063851,85.3834569 C295.321381,80.7525573 299.047755,76.4699083 303.183851,72.6034569 C307.148784,68.8696015 311.631617,65.7272402 316.493851,63.2734569 C324.308023,59.0669335 333.011154,56.780605 341.883851,56.6034569 C350.082714,56.4235569 358.212856,58.1344452 365.643851,61.6034569 C373.05022,65.1559332 379.463731,70.4839219 384.313851,77.1134569 C389.602526,84.3799874 393.082099,92.8029552 394.463851,101.683457 C395.351877,107.544305 395.856283,113.456881 395.973851,119.383457 C396.038536,125.241938 395.441419,131.088987 394.193851,136.813457 C392.118867,145.988198 388.347454,154.694327 383.073851,162.483457 C377.731336,170.751055 370.958899,178.000948 363.073851,183.893457 C355.5258,189.556813 346.800393,193.449582 337.543851,195.283457 C328.277184,197.13679 318.977184,195.683457 309.643851,190.923457 C305.602186,189.014476 301.782586,186.667048 298.253851,183.923457 C294.783475,181.185771 291.690038,178.001548 289.053851,174.453457 C286.045791,170.608201 283.5981,166.355886 281.783851,161.823457 C280.021571,157.363505 278.597547,152.777212 277.523851,148.103457 C276.244852,143.042654 275.779031,137.810613 276.143851,132.603457 C276.495243,127.494559 277.136274,122.409717 278.063851,117.373457 L278.343851,115.713457 Z M311.283851,121.473457 C310.737184,124.400124 310.277184,127.283457 309.903851,130.123457 C309.543798,132.99555 309.543798,135.901364 309.903851,138.773457 C310.395574,142.782557 311.55848,146.68032 313.343851,150.303457 C314.907766,153.576355 317.266115,156.405687 320.203851,158.533457 C323.051517,160.556964 326.450622,161.659753 329.943851,161.693457 C333.603851,161.78679 337.540518,160.643457 341.753851,158.263457 C347.053851,155.150124 351.627184,150.343457 355.473851,143.843457 C359.231102,137.636667 361.671662,130.723452 362.643851,123.533457 C363.579736,116.787495 362.823727,109.914686 360.443851,103.533457 C358.063851,97.2201236 353.397184,92.6901236 346.443851,89.9434569 C342.098971,89.9012651 337.79556,90.7912732 333.823851,92.5534569 C330.099285,94.2141589 326.710115,96.5425187 323.823851,99.4234569 C320.886655,102.38383 318.391046,105.751723 316.413851,109.423457 C314.294516,113.253265 312.575438,117.291255 311.283851,121.473457 L311.283851,121.473457 Z" id="Shape"></path>
                <path d="M526.403851,159.353457 C529.510518,164.68679 530.563851,169.44679 529.563851,173.633457 C528.802317,177.469031 526.588121,180.861982 523.383851,183.103457 C520.00918,185.274147 515.967405,186.161279 511.993851,185.603457 C507.500518,185.143457 503.167184,182.810124 498.993851,178.603457 C494.763738,181.625447 490.149801,184.070296 485.273851,185.873457 C480.329738,187.666299 475.28839,189.178703 470.173851,190.403457 C462.345807,192.23962 454.183853,192.098719 446.423851,189.993457 C431.480231,185.985788 418.951172,175.802518 411.973851,161.993457 C408.312705,154.887642 406.264035,147.061723 405.973851,139.073457 C405.400902,130.236832 406.094591,121.363681 408.033851,112.723457 C409.841194,104.592283 412.947724,96.8056972 417.233851,89.6634569 C421.499005,82.6485823 427.151016,76.5780305 433.843851,71.8234569 C441.128623,66.6981843 449.400895,63.1461136 458.133851,61.3934569 C463.568525,60.2917454 469.098654,59.7290187 474.643851,59.7134569 C480.205406,59.7137544 485.757496,60.171969 491.243851,61.0834569 C491.063851,57.0834569 490.923851,52.4334569 490.833851,47.2234569 C490.743851,42.0134569 490.703851,36.9334569 490.703851,31.9834569 C490.703851,27.0334569 490.883851,22.6134569 491.243851,18.6734569 C491.427819,15.8434714 491.896861,13.0392692 492.643851,10.3034569 C493.75266,7.22068133 495.820505,4.57454132 498.543851,2.75345692 C501.021528,1.07157868 503.921478,0.118787651 506.913851,0.00345691631 C509.942978,-0.0580496511 512.932187,0.702211541 515.563851,2.20345692 C518.45105,3.81540138 520.791044,6.25289532 522.283851,9.20345692 C522.651582,10.1191972 523.114099,10.9939574 523.663851,11.8134569 C524.191046,12.5823627 524.476582,13.4912024 524.483851,14.4234569 C524.663851,38.4234569 524.710518,62.1201236 524.623851,85.5134569 C524.537184,108.90679 524.490518,132.60679 524.483851,156.613457 C525.213851,157.713457 525.853851,158.603457 526.403851,159.353457 Z M488.243851,144.263457 C488.796112,143.563964 489.500647,142.999652 490.303851,142.613457 C491.195732,142.240519 491.78651,141.379783 491.813851,140.413457 L491.813851,117.773457 C491.813851,110.360124 491.723851,102.810124 491.543851,95.1234569 C487.020233,94.1975194 482.428049,93.6456547 477.813851,93.4734569 C473.152066,93.2836322 468.486683,93.7481509 463.953851,94.8534569 C459.551537,95.9217896 455.380296,97.7820751 451.643851,100.343457 C447.714618,103.119096 444.627904,106.925581 442.723851,111.343457 C441.623851,114.810124 440.623851,118.28679 439.723851,121.773457 C438.82983,125.08704 438.323112,128.493126 438.213851,131.923457 C438.118101,135.217464 438.533017,138.506434 439.443851,141.673457 C440.421785,144.998045 442.004973,148.11357 444.113851,150.863457 C444.921614,151.667598 445.794599,152.403447 446.723851,153.063457 C447.723851,153.793457 449.723851,155.063457 452.623851,156.903457 C459.137165,157.479149 465.700673,156.827886 471.973851,154.983457 C478.294085,153.004308 483.931455,149.28995 488.243851,144.263457 Z" id="Shape"></path>
                <path d="M581.773851,164.303457 C583.897321,166.289885 585.618627,168.666442 586.843851,171.303457 C588.172711,173.951887 588.922659,176.852822 589.043851,179.813457 C589.152463,182.606021 588.488059,185.374369 587.123851,187.813457 C585.750518,190.280124 583.323851,192.153457 579.843851,193.433457 C576.919349,194.363787 573.809492,194.552784 570.793851,193.983457 C567.393176,193.397964 564.104009,192.288081 561.043851,190.693457 C557.954122,189.119514 555.091502,187.134854 552.533851,184.793457 C550.211335,182.705883 548.383636,180.126608 547.183851,177.243457 C546.790386,176.224314 546.511994,175.164409 546.353851,174.083457 C546.185741,173.038261 546.095493,171.982022 546.083851,170.923457 L546.083851,18.5334569 C546.040943,14.4362221 547.795129,10.5258485 550.883851,7.83345692 C553.786726,5.04635052 557.477156,3.22033873 561.453851,2.60345692 C563.457463,2.44817684 565.470845,2.73141544 567.353851,3.43345692 C569.474724,4.17190143 571.468374,5.23450653 573.263851,6.58345692 C575.039249,7.91432521 576.571725,9.54152367 577.793851,11.3934569 C578.938551,13.0976672 579.557499,15.1005558 579.573851,17.1534569 L579.573851,36.1034569 C579.573851,43.9767902 579.620518,52.5801236 579.713851,61.9134569 C579.807184,71.2467902 579.850518,80.9134569 579.843851,90.9134569 C579.843851,100.913457 579.800518,110.473457 579.713851,119.593457 C579.627184,128.713457 579.580518,137.08679 579.573851,144.713457 C579.573851,152.30679 579.483851,158.390124 579.303851,162.963457 L581.773851,164.303457 Z" id="Path"></path>
                <path d="M691.763851,144.533457 C695.570308,143.437017 699.602186,143.388648 703.433851,144.393457 C706.514036,145.212951 709.25311,146.992298 711.253851,149.473457 C713.126313,152.001878 714.005262,155.129795 713.723851,158.263457 C713.543851,161.730124 711.990518,165.39679 709.063851,169.263457 C706.392347,172.621741 703.016234,175.352672 699.173851,177.263457 C695.369076,179.277816 691.425784,181.01888 687.373851,182.473457 C679.10648,185.582718 670.556198,187.880209 661.843851,189.333457 C654.348217,190.614806 646.689485,190.614806 639.193851,189.333457 C632.132312,188.036151 625.408994,185.31416 619.433851,181.333457 C612.731171,176.753198 606.916696,170.992937 602.273851,164.333457 C598.548732,159.256484 595.804988,153.528199 594.183851,147.443457 C592.435821,141.135277 591.465293,134.637106 591.293851,128.093457 C591.109476,121.555421 591.662973,115.017446 592.943851,108.603457 C594.08226,102.642941 595.92519,96.8388847 598.433851,91.3134569 C601.540518,84.9001236 606.480518,79.0434569 613.253851,73.7434569 C620.071458,68.4135606 627.662059,64.1545959 635.763851,61.1134569 C643.856717,58.0352431 652.37794,56.230471 661.023851,55.7634569 C669.623851,55.3034569 677.217184,56.6367902 683.803851,59.7634569 C689.307442,62.3369417 694.145463,66.1416654 697.943851,70.8834569 C701.752444,75.496321 704.515891,80.8799257 706.043851,86.6634569 C707.503948,92.2750302 707.644282,98.1485551 706.453851,103.823457 C705.111671,109.851835 702.006678,115.344747 697.533851,119.603457 C693.106298,124.069203 688.012308,127.820539 682.433851,130.723457 C676.93736,133.566837 671.258212,136.042277 665.433851,138.133457 C659.538483,140.25158 653.529064,142.037713 647.433851,143.483457 C641.307184,144.95679 635.403851,146.603457 629.723851,148.423457 C633.122077,152.538453 637.735852,155.471945 642.903851,156.803457 C647.985344,158.001608 653.246997,158.232293 658.413851,157.483457 C664.031359,156.691656 669.521224,155.168747 674.743851,152.953457 C680.025756,150.773352 685.15997,148.251341 690.113851,145.403457 L691.763851,144.533457 Z M636.313851,97.3234569 C632.439386,99.3775803 629.2099,102.465149 626.983851,106.243457 C624.983851,109.81679 623.520518,114.81679 622.593851,121.243457 C627.347184,119.783457 632.700518,118.22679 638.653851,116.573457 C644.607184,114.920124 650.233851,113.183457 655.533851,111.363457 C660.209002,109.824611 664.715524,107.814267 668.983851,105.363457 C672.643851,103.163457 674.473874,100.783457 674.473874,98.2234569 C674.476567,96.7786884 674.243505,95.3431583 673.783851,93.9734569 C673.336564,92.6078607 672.267888,91.5354748 670.903851,91.0834569 C665.798591,89.2632192 660.290941,88.8826655 654.983851,89.9834569 C650.201065,90.8249096 645.572415,92.3824016 641.253851,94.6034569 L636.313851,97.3234569 Z" id="Shape"></path>
                <path d="M721.863851,163.603457 C720.761566,160.570151 720.278714,157.346609 720.443851,154.123457 C720.595815,151.147787 721.419759,148.245178 722.853851,145.633457 C724.257229,143.096424 726.374871,141.027463 728.943851,139.683457 C731.922126,138.212525 735.274291,137.672415 738.563851,138.133457 C740.547792,138.295576 742.475817,138.871258 744.223851,139.823457 C745.911414,140.765129 747.479378,141.906688 748.893851,143.223457 C750.307184,144.55679 751.723851,145.973457 753.143851,147.473457 C757.143995,151.755076 762.153185,154.966184 767.713851,156.813457 C771.410723,157.970694 775.196957,158.820256 779.033851,159.353457 C781.327518,159.465966 783.586127,158.756826 785.403851,157.353457 C786.935857,156.13096 788.064755,154.475939 788.643851,152.603457 C789.210594,150.629006 789.35372,148.557081 789.063851,146.523457 C788.887193,144.606478 788.149849,142.783985 786.943851,141.283457 C783.737737,138.079289 779.645073,135.909306 775.193851,135.053457 C770.836533,134.182282 766.53546,133.050244 762.313851,131.663457 C756.553538,129.732043 750.96695,127.316763 745.613851,124.443457 C740.245947,121.619793 735.672833,117.493675 732.313851,112.443457 C728.836326,107.440247 726.648213,101.65566 725.943851,95.6034569 C725.273658,89.7631105 725.756107,83.8480095 727.363851,78.1934569 C728.973044,72.5140751 731.71849,67.220501 735.433851,62.6334569 C739.180643,57.9347195 743.789762,53.9942284 749.013851,51.0234569 C753.028599,48.7467685 757.440784,47.2568076 762.013851,46.6334569 C766.748051,45.9779501 771.539324,45.837129 776.303851,46.2134569 C781.153009,46.5960832 785.947116,47.4979115 790.603851,48.9034569 C795.021904,50.2133582 799.362192,51.7725234 803.603851,53.5734569 C807.819751,55.3822452 811.377268,58.4440139 813.793851,62.3434569 C815.955648,65.7755952 817.083893,69.7574321 817.043851,73.8134569 C816.985972,77.5253364 815.561856,81.085628 813.043851,83.8134569 C810.497184,86.6467902 806.770518,88.0634569 801.863851,88.0634569 C799.049901,88.1034013 796.257037,87.5727231 793.653851,86.5034569 C791.207184,85.4701236 788.660518,84.4701236 786.013851,83.5034569 C782.473446,82.1524243 778.778192,81.2487668 775.013851,80.8134569 C771.053851,80.3401236 767.847184,80.5767902 765.393851,81.5234569 C764.386344,81.8821474 763.501839,82.5203783 762.843851,83.3634569 C761.862363,84.4636194 761.138171,85.7685312 760.723851,87.1834569 C760.250338,88.6455331 760.150637,90.2029368 760.433851,91.7134569 C760.810625,93.3382114 761.918346,94.6970153 763.433851,95.3934569 C767.996774,97.8577806 772.842303,99.758383 777.863851,101.053457 C782.963851,102.38679 787.963851,103.89679 792.863851,105.583457 C797.668757,107.235166 802.274008,109.418719 806.593851,112.093457 C811.020361,114.921535 814.668019,118.813287 817.203851,123.413457 C821.252405,130.229872 823.448358,137.986379 823.573851,145.913457 C823.721237,153.488238 822.12333,160.995324 818.903851,167.853457 C815.648974,174.703118 810.796135,180.670567 804.753851,185.253457 C798.433421,190.100421 790.888416,193.092108 782.963851,193.893457 C777.190202,194.459907 771.363532,194.12252 765.693851,192.893457 C759.982545,191.646135 754.461325,189.648812 749.273851,186.953457 C744.032992,184.239958 739.10098,180.967597 734.563851,177.193457 C730.234159,173.614246 726.253062,169.633149 722.673851,165.303457 L721.863851,163.603457 Z" id="Path"></path>
            </g>
            <g id="fills" transform="translate(7.003626, 6.996543)">
                <path d="M37.4938509,191.753457 C32.835363,190.886241 28.5654936,188.581701 25.2838509,185.163457 C21.9127534,181.729281 20.0795555,177.074113 20.2038509,172.263457 L20.2038509,56.6934569 C16.9485834,57.2499778 13.6012312,56.8180613 10.5938509,55.4534569 C7.71047321,54.2597632 5.1655103,52.3742238 3.18385085,49.9634569 C1.34921206,47.6765746 0.250918572,44.8872578 0.0338508507,41.9634569 C-0.205565904,38.8135363 0.832365065,35.6997434 2.91385085,33.3234569 C5.26597232,30.2314833 8.14713675,27.5805412 11.4238509,25.4934569 C14.7069278,23.3936051 18.203076,21.647207 21.8538509,20.2834569 C25.5712715,18.8918215 29.3761386,17.7460187 33.2438509,16.8534569 C37.1705175,15.9334569 40.9671842,15.1101236 44.6338509,14.3834569 C54.7970498,12.7386199 65.1212101,12.3222961 75.3838509,13.1434569 C85.3645276,13.9062774 95.1722654,16.1753072 104.473851,19.8734569 C113.671515,23.5565848 122.18116,28.7665026 129.643851,35.2834569 C137.450881,42.1572112 143.758575,50.5652004 148.173851,59.9834569 C151.074892,65.9570115 153.195621,72.2788688 154.483851,78.7934569 C155.758597,85.261349 156.494455,91.823864 156.683851,98.4134569 C156.897183,106.847976 155.886675,115.268877 153.683851,123.413457 C149.322399,139.455868 140.352297,153.867137 127.883851,164.863457 C121.58098,170.400484 114.532243,175.025586 106.943851,178.603457 C100.064658,181.744942 92.8327849,184.048129 85.4038509,185.463457 C77.8038509,186.923457 70.3438509,188.203457 63.0238509,189.303457 C59.3638509,189.850124 55.4771842,190.44679 51.3638509,191.093457 C47.4154793,191.733265 43.4236413,192.06759 39.4238509,192.093457 L37.4938509,191.753457 Z M67.1438509,45.9834569 C64.7638509,45.9834569 62.5238509,46.0834569 60.4238509,46.2634569 C58.3238509,46.4434569 56.0738509,46.7234569 53.6938509,47.0834569 L53.6938509,157.163457 C54.6185464,157.183625 55.5421959,157.089581 56.4438509,156.883457 C57.1629507,156.700383 57.9018182,156.606345 58.6438509,156.603457 C59.294929,156.616906 59.9437304,156.522289 60.5638509,156.323457 C63.1238509,155.963457 65.2305175,155.690124 66.8838509,155.503457 C68.5238509,155.323457 70.0838509,155.093457 71.5438509,154.813457 C73.0038509,154.533457 74.5438509,154.223457 76.0738509,153.813457 C77.6038509,153.403457 79.4138509,152.993457 81.4338509,152.443457 C92.0471842,149.703457 100.417184,145.370124 106.543851,139.443457 C112.670518,133.51679 117.290518,125.32679 120.403851,114.873457 C122.403886,108.955056 123.335061,102.728037 123.153851,96.4834569 C122.995061,90.3890952 121.836302,84.3621989 119.723851,78.6434569 C117.611605,72.963821 114.495361,67.7102412 110.523851,63.1334569 C106.429114,58.4169213 101.377124,54.6262244 95.7038509,52.0134569 C91.2139278,49.8958882 86.4518303,48.4117292 81.5538509,47.6034569 C76.8938509,46.8967902 72.0905175,46.3567902 67.1438509,45.9834569 Z" id="Shape" fill="#FFADDE"></path>
                <path d="M157.093851,115.713457 C158.397158,110.343559 160.191375,105.104847 162.453851,100.063457 C164.753188,94.906214 167.556827,89.9889598 170.823851,85.3834569 C174.078449,80.7502608 177.805075,76.4673215 181.943851,72.6034569 C185.907012,68.8674253 190.390176,65.7248318 195.253851,63.2734569 C203.067173,59.0647768 211.770834,56.778309 220.643851,56.6034569 C228.836126,56.4252019 236.959399,58.1360851 244.383851,61.6034569 C251.791798,65.1534727 258.205861,70.48192 263.053851,77.1134569 C268.345748,84.3792279 271.828743,92.8021798 273.213851,101.683457 C274.091989,107.54547 274.596341,113.457407 274.723851,119.383457 C274.784996,125.242305 274.184527,131.089329 272.933851,136.813457 C270.862603,145.987716 267.094549,154.693923 261.823851,162.483457 C256.475622,170.746596 249.704062,177.995551 241.823851,183.893457 C234.2758,189.556813 225.550393,193.449582 216.293851,195.283457 C207.053851,197.11679 197.767184,195.653457 188.433851,190.893457 C184.388713,188.985119 180.56573,186.637673 177.033851,183.893457 C173.566609,181.155535 170.476509,177.971286 167.843851,174.423457 C164.829237,170.58086 162.377902,166.328065 160.563851,161.793457 C158.804898,157.333254 157.384217,152.746961 156.313851,148.073457 C155.027947,143.023934 154.552021,137.80225 154.903851,132.603457 C155.250304,127.494079 155.89137,122.408956 156.823851,117.373457 L157.093851,115.713457 Z M190.033851,121.473457 C189.483851,124.403457 189.033851,127.283457 188.663851,130.123457 C188.293822,132.994918 188.293822,135.901995 188.663851,138.773457 C189.152424,142.781963 190.311941,146.679699 192.093851,150.303457 C193.664191,153.572229 196.021331,156.40011 198.953851,158.533457 C201.805763,160.556012 205.207722,161.658596 208.703851,161.693457 C212.363851,161.78679 216.297184,160.643457 220.503851,158.263457 C225.837184,155.150124 230.413851,150.343457 234.233851,143.843457 C237.976186,137.632244 240.406157,130.720098 241.373851,123.533457 C242.309736,116.787495 241.553727,109.914686 239.173851,103.533457 C236.793851,97.2201236 232.127184,92.6901236 225.173851,89.9434569 C220.825727,89.9010749 216.519016,90.7910603 212.543851,92.5534569 C208.822138,94.2192474 205.433841,96.5470074 202.543851,99.4234569 C199.606655,102.38383 197.111046,105.751723 195.133851,109.423457 C193.02896,113.256464 191.320134,117.293985 190.033851,121.473457 Z" id="Shape" fill="#ADBFFD"></path>
                <path d="M278.343851,115.713457 C279.64371,110.34383 281.434583,105.105107 283.693851,100.063457 C286.000885,94.910116 288.804105,89.9935965 292.063851,85.3834569 C295.321381,80.7525573 299.047755,76.4699083 303.183851,72.6034569 C307.148784,68.8696015 311.631617,65.7272402 316.493851,63.2734569 C324.308023,59.0669335 333.011154,56.780605 341.883851,56.6034569 C350.082714,56.4235569 358.212856,58.1344452 365.643851,61.6034569 C373.05022,65.1559332 379.463731,70.4839219 384.313851,77.1134569 C389.602526,84.3799874 393.082099,92.8029552 394.463851,101.683457 C395.351877,107.544305 395.856283,113.456881 395.973851,119.383457 C396.038536,125.241938 395.441419,131.088987 394.193851,136.813457 C392.118867,145.988198 388.347454,154.694327 383.073851,162.483457 C377.731336,170.751055 370.958899,178.000948 363.073851,183.893457 C355.5258,189.556813 346.800393,193.449582 337.543851,195.283457 C328.277184,197.13679 318.977184,195.683457 309.643851,190.923457 C305.602186,189.014476 301.782586,186.667048 298.253851,183.923457 C294.783475,181.185771 291.690038,178.001548 289.053851,174.453457 C286.045791,170.608201 283.5981,166.355886 281.783851,161.823457 C280.021571,157.363505 278.597547,152.777212 277.523851,148.103457 C276.244852,143.042654 275.779031,137.810613 276.143851,132.603457 C276.495243,127.494559 277.136274,122.409717 278.063851,117.373457 L278.343851,115.713457 Z M311.283851,121.473457 C310.737184,124.400124 310.277184,127.283457 309.903851,130.123457 C309.543798,132.99555 309.543798,135.901364 309.903851,138.773457 C310.395574,142.782557 311.55848,146.68032 313.343851,150.303457 C314.907766,153.576355 317.266115,156.405687 320.203851,158.533457 C323.051517,160.556964 326.450622,161.659753 329.943851,161.693457 C333.603851,161.78679 337.540518,160.643457 341.753851,158.263457 C347.053851,155.150124 351.627184,150.343457 355.473851,143.843457 C359.231102,137.636667 361.671662,130.723452 362.643851,123.533457 C363.579736,116.787495 362.823727,109.914686 360.443851,103.533457 C358.063851,97.2201236 353.397184,92.6901236 346.443851,89.9434569 C342.098971,89.9012651 337.79556,90.7912732 333.823851,92.5534569 C330.099285,94.2141589 326.710115,96.5425187 323.823851,99.4234569 C320.886655,102.38383 318.391046,105.751723 316.413851,109.423457 C314.294516,113.253265 312.575438,117.291255 311.283851,121.473457 L311.283851,121.473457 Z" id="Shape" fill="#92EBEB"></path>
                <path d="M526.403851,159.353457 C529.510518,164.68679 530.563851,169.44679 529.563851,173.633457 C528.802317,177.469031 526.588121,180.861982 523.383851,183.103457 C520.00918,185.274147 515.967405,186.161279 511.993851,185.603457 C507.500518,185.143457 503.167184,182.810124 498.993851,178.603457 C494.763738,181.625447 490.149801,184.070296 485.273851,185.873457 C480.329738,187.666299 475.28839,189.178703 470.173851,190.403457 C462.345807,192.23962 454.183853,192.098719 446.423851,189.993457 C431.480231,185.985788 418.951172,175.802518 411.973851,161.993457 C408.312705,154.887642 406.264035,147.061723 405.973851,139.073457 C405.400902,130.236832 406.094591,121.363681 408.033851,112.723457 C409.841194,104.592283 412.947724,96.8056972 417.233851,89.6634569 C421.499005,82.6485823 427.151016,76.5780305 433.843851,71.8234569 C441.128623,66.6981843 449.400895,63.1461136 458.133851,61.3934569 C463.568525,60.2917454 469.098654,59.7290187 474.643851,59.7134569 C480.205406,59.7137544 485.757496,60.171969 491.243851,61.0834569 C491.063851,57.0834569 490.923851,52.4334569 490.833851,47.2234569 C490.743851,42.0134569 490.703851,36.9334569 490.703851,31.9834569 C490.703851,27.0334569 490.883851,22.6134569 491.243851,18.6734569 C491.427819,15.8434714 491.896861,13.0392692 492.643851,10.3034569 C493.75266,7.22068133 495.820505,4.57454132 498.543851,2.75345692 C501.021528,1.07157868 503.921478,0.118787651 506.913851,0.00345691631 C509.942978,-0.0580496511 512.932187,0.702211541 515.563851,2.20345692 C518.45105,3.81540138 520.791044,6.25289532 522.283851,9.20345692 C522.651582,10.1191972 523.114099,10.9939574 523.663851,11.8134569 C524.191046,12.5823627 524.476582,13.4912024 524.483851,14.4234569 C524.663851,38.4234569 524.710518,62.1201236 524.623851,85.5134569 C524.537184,108.90679 524.490518,132.60679 524.483851,156.613457 C525.213851,157.713457 525.853851,158.603457 526.403851,159.353457 Z M488.243851,144.263457 C488.796112,143.563964 489.500647,142.999652 490.303851,142.613457 C491.195732,142.240519 491.78651,141.379783 491.813851,140.413457 L491.813851,117.773457 C491.813851,110.360124 491.723851,102.810124 491.543851,95.1234569 C487.020233,94.1975194 482.428049,93.6456547 477.813851,93.4734569 C473.152066,93.2836322 468.486683,93.7481509 463.953851,94.8534569 C459.551537,95.9217896 455.380296,97.7820751 451.643851,100.343457 C447.714618,103.119096 444.627904,106.925581 442.723851,111.343457 C441.623851,114.810124 440.623851,118.28679 439.723851,121.773457 C438.82983,125.08704 438.323112,128.493126 438.213851,131.923457 C438.118101,135.217464 438.533017,138.506434 439.443851,141.673457 C440.421785,144.998045 442.004973,148.11357 444.113851,150.863457 C444.921614,151.667598 445.794599,152.403447 446.723851,153.063457 C447.723851,153.793457 449.723851,155.063457 452.623851,156.903457 C459.137165,157.479149 465.700673,156.827886 471.973851,154.983457 C478.294085,153.004308 483.931455,149.28995 488.243851,144.263457 L488.243851,144.263457 Z" id="Shape" fill="#95F1C5"></path>
                <path d="M581.773851,164.303457 C583.897321,166.289885 585.618627,168.666442 586.843851,171.303457 C588.172711,173.951887 588.922659,176.852822 589.043851,179.813457 C589.152463,182.606021 588.488059,185.374369 587.123851,187.813457 C585.750518,190.280124 583.323851,192.153457 579.843851,193.433457 C576.919349,194.363787 573.809492,194.552784 570.793851,193.983457 C567.393176,193.397964 564.104009,192.288081 561.043851,190.693457 C557.954122,189.119514 555.091502,187.134854 552.533851,184.793457 C550.211335,182.705883 548.383636,180.126608 547.183851,177.243457 C546.790386,176.224314 546.511994,175.164409 546.353851,174.083457 C546.185741,173.038261 546.095493,171.982022 546.083851,170.923457 L546.083851,18.5334569 C546.040943,14.4362221 547.795129,10.5258485 550.883851,7.83345692 C553.786726,5.04635052 557.477156,3.22033873 561.453851,2.60345692 C563.457463,2.44817684 565.470845,2.73141544 567.353851,3.43345692 C569.474724,4.17190143 571.468374,5.23450653 573.263851,6.58345692 C575.039249,7.91432521 576.571725,9.54152367 577.793851,11.3934569 C578.938551,13.0976672 579.557499,15.1005558 579.573851,17.1534569 L579.573851,36.1034569 C579.573851,43.9767902 579.620518,52.5801236 579.713851,61.9134569 C579.807184,71.2467902 579.850518,80.9134569 579.843851,90.9134569 C579.843851,100.913457 579.800518,110.473457 579.713851,119.593457 C579.627184,128.713457 579.580518,137.08679 579.573851,144.713457 C579.573851,152.30679 579.483851,158.390124 579.303851,162.963457 L581.773851,164.303457 Z" id="Path" fill="#FFE375"></path>
                <path d="M691.763851,144.533457 C695.570308,143.437017 699.602186,143.388648 703.433851,144.393457 C706.514036,145.212951 709.25311,146.992298 711.253851,149.473457 C713.126313,152.001878 714.005262,155.129795 713.723851,158.263457 C713.543851,161.730124 711.990518,165.39679 709.063851,169.263457 C706.392347,172.621741 703.016234,175.352672 699.173851,177.263457 C695.369076,179.277816 691.425784,181.01888 687.373851,182.473457 C679.10648,185.582718 670.556198,187.880209 661.843851,189.333457 C654.348217,190.614806 646.689485,190.614806 639.193851,189.333457 C632.132312,188.036151 625.408994,185.31416 619.433851,181.333457 C612.731171,176.753198 606.916696,170.992937 602.273851,164.333457 C598.548732,159.256484 595.804988,153.528199 594.183851,147.443457 C592.435821,141.135277 591.465293,134.637106 591.293851,128.093457 C591.109476,121.555421 591.662973,115.017446 592.943851,108.603457 C594.08226,102.642941 595.92519,96.8388847 598.433851,91.3134569 C601.540518,84.9001236 606.480518,79.0434569 613.253851,73.7434569 C620.071458,68.4135606 627.662059,64.1545959 635.763851,61.1134569 C643.856717,58.0352431 652.37794,56.230471 661.023851,55.7634569 C669.623851,55.3034569 677.217184,56.6367902 683.803851,59.7634569 C689.307442,62.3369417 694.145463,66.1416654 697.943851,70.8834569 C701.744805,75.4787371 704.507862,80.8411146 706.043851,86.6034569 C707.503948,92.2150302 707.644282,98.0885551 706.453851,103.763457 C705.122756,109.813353 702.016968,115.328563 697.533851,119.603457 C693.106298,124.069203 688.012308,127.820539 682.433851,130.723457 C676.93736,133.566837 671.258212,136.042277 665.433851,138.133457 C659.538483,140.25158 653.529064,142.037713 647.433851,143.483457 C641.307184,144.95679 635.403851,146.603457 629.723851,148.423457 C633.122077,152.538453 637.735852,155.471945 642.903851,156.803457 C647.985344,158.001608 653.246997,158.232293 658.413851,157.483457 C664.031359,156.691656 669.521224,155.168747 674.743851,152.953457 C680.025756,150.773352 685.15997,148.251341 690.113851,145.403457 L691.763851,144.533457 Z M636.313851,97.3234569 C632.439386,99.3775803 629.2099,102.465149 626.983851,106.243457 C624.983851,109.81679 623.520518,114.81679 622.593851,121.243457 C627.347184,119.783457 632.700518,118.22679 638.653851,116.573457 C644.607184,114.920124 650.233851,113.183457 655.533851,111.363457 C660.209002,109.824611 664.715524,107.814267 668.983851,105.363457 C672.643851,103.163457 674.473874,100.783457 674.473874,98.2234569 C674.476567,96.7786884 674.243505,95.3431583 673.783851,93.9734569 C673.336564,92.6078607 672.267888,91.5354748 670.903851,91.0834569 C665.798591,89.2632192 660.290941,88.8826655 654.983851,89.9834569 C650.201065,90.8249096 645.572415,92.3824016 641.253851,94.6034569 L636.313851,97.3234569 Z" id="Shape" fill="#FFC48C"></path>
                <path d="M721.863851,163.603457 C720.761566,160.570151 720.278714,157.346609 720.443851,154.123457 C720.595815,151.147787 721.419759,148.245178 722.853851,145.633457 C724.257229,143.096424 726.374871,141.027463 728.943851,139.683457 C731.922126,138.212525 735.274291,137.672415 738.563851,138.133457 C740.547792,138.295576 742.475817,138.871258 744.223851,139.823457 C745.911414,140.765129 747.479378,141.906688 748.893851,143.223457 C750.307184,144.55679 751.723851,145.973457 753.143851,147.473457 C757.143995,151.755076 762.153185,154.966184 767.713851,156.813457 C771.410723,157.970694 775.196957,158.820256 779.033851,159.353457 C781.327518,159.465966 783.586127,158.756826 785.403851,157.353457 C786.935857,156.13096 788.064755,154.475939 788.643851,152.603457 C789.210594,150.629006 789.35372,148.557081 789.063851,146.523457 C788.887193,144.606478 788.149849,142.783985 786.943851,141.283457 C783.737737,138.079289 779.645073,135.909306 775.193851,135.053457 C770.836533,134.182282 766.53546,133.050244 762.313851,131.663457 C756.553538,129.732043 750.96695,127.316763 745.613851,124.443457 C740.245947,121.619793 735.672833,117.493675 732.313851,112.443457 C728.836326,107.440247 726.648213,101.65566 725.943851,95.6034569 C725.273658,89.7631105 725.756107,83.8480095 727.363851,78.1934569 C728.973044,72.5140751 731.71849,67.220501 735.433851,62.6334569 C739.180643,57.9347195 743.789762,53.9942284 749.013851,51.0234569 C753.028599,48.7467685 757.440784,47.2568076 762.013851,46.6334569 C766.748051,45.9779501 771.539324,45.837129 776.303851,46.2134569 C781.153009,46.5960832 785.947116,47.4979115 790.603851,48.9034569 C795.021904,50.2133582 799.362192,51.7725234 803.603851,53.5734569 C807.819751,55.3822452 811.377268,58.4440139 813.793851,62.3434569 C815.955648,65.7755952 817.083893,69.7574321 817.043851,73.8134569 C816.985972,77.5253364 815.561856,81.085628 813.043851,83.8134569 C810.497184,86.6467902 806.770518,88.0634569 801.863851,88.0634569 C799.049901,88.1034013 796.257037,87.5727231 793.653851,86.5034569 C791.207184,85.4701236 788.660518,84.4701236 786.013851,83.5034569 C782.473446,82.1524243 778.778192,81.2487668 775.013851,80.8134569 C771.053851,80.3467902 767.847184,80.5834569 765.393851,81.5234569 C764.386344,81.8821474 763.501839,82.5203783 762.843851,83.3634569 C761.862363,84.4636194 761.138171,85.7685312 760.723851,87.1834569 C760.250338,88.6455331 760.150637,90.2029368 760.433851,91.7134569 C760.810625,93.3382114 761.918346,94.6970153 763.433851,95.3934569 C767.996774,97.8577806 772.842303,99.758383 777.863851,101.053457 C782.963851,102.38679 787.963851,103.89679 792.863851,105.583457 C797.668757,107.235166 802.274008,109.418719 806.593851,112.093457 C811.020361,114.921535 814.668019,118.813287 817.203851,123.413457 C821.252405,130.229872 823.448358,137.986379 823.573851,145.913457 C823.721237,153.488238 822.12333,160.995324 818.903851,167.853457 C815.648974,174.703118 810.796135,180.670567 804.753851,185.253457 C798.433421,190.100421 790.888416,193.092108 782.963851,193.893457 C777.190202,194.459907 771.363532,194.12252 765.693851,192.893457 C759.982545,191.646135 754.461325,189.648812 749.273851,186.953457 C744.032992,184.239958 739.10098,180.967597 734.563851,177.193457 C730.234159,173.614246 726.253062,169.633149 722.673851,165.303457 L721.863851,163.603457 Z" id="Path" fill="#FFADDE"></path>
            </g>
            <g id="outline" transform="translate(0.000000, -0.000000)">
                <path d="M44.4974768,198.75 C39.838989,197.882785 35.5691196,195.578244 32.2874768,192.16 C28.9163793,188.725824 27.0831815,184.070656 27.2074768,179.26 L27.2074768,63.69 C23.9522093,64.2465208 20.6048572,63.8146044 17.5974768,62.45 C14.7140992,61.2563063 12.1691363,59.3707669 10.1874768,56.96 C8.35283803,54.6731177 7.25454454,51.8838009 7.03747682,48.96 C6.79806007,45.8100794 7.83599104,42.6962865 9.91747682,40.32 C12.2695983,37.2280264 15.1507627,34.5770843 18.4274768,32.49 C21.7105538,30.3901482 25.2067019,28.6437501 28.8574768,27.28 C32.5748974,25.8883646 36.3797645,24.7425618 40.2474768,23.85 C44.1741435,22.93 47.9708102,22.1066667 51.6374768,21.38 C61.8006757,19.735163 72.124836,19.3188391 82.3874768,20.14 C92.3681536,20.9028205 102.175891,23.1718503 111.477477,26.87 C120.675141,30.5531279 129.184786,35.7630457 136.647477,42.28 C144.454507,49.1537543 150.762201,57.5617435 155.177477,66.98 C158.078518,72.9535545 160.199247,79.2754118 161.487477,85.79 C162.762223,92.2578921 163.498081,98.8204071 163.687477,105.41 C163.900809,113.844519 162.890301,122.26542 160.687477,130.41 C156.326025,146.452411 147.355923,160.86368 134.887477,171.86 C128.584606,177.397027 121.535869,182.02213 113.947477,185.6 C107.068284,188.741485 99.8364109,191.044672 92.4074768,192.46 C84.8074768,193.92 77.3474768,195.2 70.0274768,196.3 C66.3674768,196.846667 62.4808102,197.443333 58.3674768,198.09 C54.4191053,198.729808 50.4272672,199.064133 46.4274768,199.09 L44.4974768,198.75 Z M74.1474768,52.98 C71.7674768,52.98 69.5274768,53.08 67.4274768,53.26 C65.3274768,53.44 63.0774768,53.72 60.6974768,54.08 L60.6974768,164.16 C61.6221723,164.180168 62.5458219,164.086124 63.4474768,163.88 C64.1665767,163.696926 64.9054442,163.602888 65.6474768,163.6 C66.2985549,163.613449 66.9473564,163.518832 67.5674768,163.32 C70.1274768,162.96 72.2341435,162.686667 73.8874768,162.5 C75.5274768,162.32 77.0874768,162.09 78.5474768,161.81 C80.0074768,161.53 81.5474768,161.22 83.0774768,160.81 C84.6074768,160.4 86.4174768,159.99 88.4374768,159.44 C99.0508102,156.7 107.42081,152.366667 113.547477,146.44 C119.674143,140.513333 124.294143,132.323333 127.407477,121.87 C129.407512,115.951599 130.338687,109.72458 130.157477,103.48 C129.998687,97.3856382 128.839928,91.3587419 126.727477,85.64 C124.615231,79.9603641 121.498987,74.7067842 117.527477,70.13 C113.43274,65.4134644 108.38075,61.6227675 102.707477,59.01 C98.2175537,56.8924313 93.4554562,55.4082723 88.5574768,54.6 C83.8974768,53.8933333 79.0941435,53.3533333 74.1474768,52.98 Z" id="Shape" fill="#FFADDE"></path>
                <path d="M72.1274768,19.77 C75.5474768,19.77 78.9674768,19.9066667 82.3874768,20.18 C92.3681536,20.9428205 102.175891,23.2118503 111.477477,26.91 C120.672354,30.5809582 129.181828,35.7772477 136.647477,42.28 C144.454507,49.1537543 150.762201,57.5617435 155.177477,66.98 C158.078518,72.9535545 160.199247,79.2754118 161.487477,85.79 C162.762223,92.2578921 163.498081,98.8204071 163.687477,105.41 C163.900809,113.844519 162.890301,122.26542 160.687477,130.41 C156.326025,146.452411 147.355923,160.86368 134.887477,171.86 C128.584606,177.397027 121.535869,182.02213 113.947477,185.6 C107.068284,188.741485 99.8364109,191.044672 92.4074768,192.46 C84.8074768,193.92 77.3474768,195.203333 70.0274768,196.31 C66.3674768,196.85 62.4808102,197.443333 58.3674768,198.09 C54.4191053,198.729808 50.4272672,199.064133 46.4274768,199.09 L44.4974768,198.82 C39.838989,197.952785 35.5691196,195.648244 32.2874768,192.23 C28.9163793,188.795824 27.0831815,184.140656 27.2074768,179.33 L27.2074768,63.69 C23.9523402,64.2527613 20.6031465,63.8206073 17.5974768,62.45 C14.7140992,61.2563063 12.1691363,59.3707669 10.1874768,56.96 C8.35415376,54.6714727 7.25295445,51.8836263 7.02747682,48.96 C6.79760791,45.8095308 7.83834295,42.6981292 9.91747682,40.32 C12.2695983,37.2280264 15.1507627,34.5770843 18.4274768,32.49 C21.7105538,30.3901482 25.2067019,28.6437501 28.8574768,27.28 C32.5748974,25.8883646 36.3797645,24.7425618 40.2474768,23.85 C44.1741435,22.93 47.9708102,22.1066667 51.6374768,21.38 C58.4125423,20.2844265 65.2644026,19.7326661 72.1274768,19.73 M60.6974768,164.16 C61.6221723,164.180168 62.5458219,164.086124 63.4474768,163.88 C64.1665767,163.696926 64.9054442,163.602888 65.6474768,163.6 C66.2985549,163.613449 66.9473564,163.518832 67.5674768,163.32 C70.1274768,162.96 72.2341435,162.686667 73.8874768,162.5 C75.5274768,162.32 77.0874768,162.09 78.5474768,161.81 C80.0074768,161.53 81.5474768,161.22 83.0774768,160.81 C84.6074768,160.4 86.4174768,159.99 88.4374768,159.44 C99.0508102,156.7 107.42081,152.366667 113.547477,146.44 C119.674143,140.513333 124.294143,132.323333 127.407477,121.87 C129.407512,115.951599 130.338687,109.72458 130.157477,103.48 C129.993833,97.3861655 128.835225,91.3600521 126.727477,85.64 C124.615231,79.9603641 121.498987,74.7067842 117.527477,70.13 C113.43274,65.4134644 108.38075,61.6227675 102.707477,59.01 C98.2175537,56.8924313 93.4554562,55.4082723 88.5574768,54.6 C83.8908102,53.8733333 79.0874768,53.3233333 74.1474768,52.95 C71.7674768,52.95 69.5274768,53.05 67.4274768,53.23 C65.3274768,53.41 63.0774768,53.69 60.6974768,54.05 L60.6974768,164.16 M72.1274768,12.77 C64.8925858,12.7727983 57.6695239,13.3546561 50.5274768,14.51 L50.3974768,14.51 L50.2674768,14.51 C46.5474768,15.26 42.6474768,16.1 38.6674768,17.03 C34.502802,17.9964433 30.4043916,19.2289726 26.3974768,20.72 C22.2878222,22.2679648 18.3500348,24.2385342 14.6474768,26.6 C10.7028931,29.1158097 7.23025678,32.3041365 4.38747682,36.02 C1.22712864,39.8080769 -0.326833548,44.6817043 0.0574768207,49.6 C0.408007652,53.879511 2.03484987,57.9553256 4.72747682,61.3 C7.41305137,64.5898231 10.8635992,67.1717256 14.7774768,68.82 C16.5161673,69.5887727 18.3384274,70.1525659 20.2074768,70.5 L20.2074768,179.26 C20.0712862,185.895424 22.6165405,192.305427 27.2674768,197.04 C31.5524234,201.477326 37.1134693,204.469316 43.1774768,205.6 L43.3474768,205.6 L43.5174768,205.6 L45.4374768,205.87 L45.9274768,205.94 L46.4274768,205.94 C50.7799451,205.938003 55.1259087,205.603698 59.4274768,204.94 C63.2074768,204.35 67.0074768,203.76 71.0574768,203.16 C78.4274768,202.05 86.0574768,200.74 93.7174768,199.27 C101.698399,197.745072 109.46734,195.267337 116.857477,191.89 L116.857477,191.89 L116.857477,191.89 C125.006431,188.027446 132.576173,183.046024 139.347477,177.09 C152.838778,165.191122 162.545737,149.598101 167.267477,132.24 C169.646796,123.443415 170.748079,114.350253 170.537477,105.24 C170.337765,98.2442091 169.55843,91.2770155 168.207477,84.41 C166.800448,77.3073069 164.488251,70.4144063 161.327477,63.9 C156.490616,53.6324701 149.602468,44.4641539 141.087477,36.96 C133.040432,29.9628194 123.881048,24.3590343 113.987477,20.38 C104.027291,16.4302153 93.5300623,13.9997394 82.8474768,13.17 C79.2574768,12.89 75.6174768,12.74 72.0274768,12.74 L72.1274768,12.77 Z M67.6974768,60.26 L68.0374768,60.26 C69.8674768,60.1 71.8474768,60.02 73.8874768,60.02 C78.5174768,60.37 83.0874768,60.89 87.4774768,61.58 C91.7301519,62.2880561 95.8654486,63.5767612 99.7674768,65.41 C104.529944,67.6056306 108.773129,70.7854634 112.217477,74.74 C115.641769,78.6901702 118.330891,83.2217136 120.157477,88.12 C121.997835,93.1260893 123.011083,98.3983571 123.157477,103.73 C123.310778,109.162555 122.50164,114.579385 120.767477,119.73 L120.767477,119.84 L120.767477,119.94 C118.007477,129.17 113.967477,136.42 108.767477,141.49 C103.567477,146.56 96.1474768,150.35 86.7674768,152.77 L86.7674768,152.77 L86.7674768,152.77 C84.7674768,153.31 83.0874768,153.77 81.6474768,154.08 C80.2074768,154.39 78.8274768,154.71 77.4274768,154.97 C76.0274768,155.23 74.7074768,155.43 73.2974768,155.58 C71.8874768,155.73 70.0074768,155.98 67.8774768,156.28 L67.8774768,60.28 L67.6974768,60.26 Z" id="Shape" fill="#000000"></path>
                <path d="M164.097477,122.71 C165.400784,117.340102 167.195001,112.10139 169.457477,107.06 C171.756814,101.902757 174.560452,96.9855029 177.827477,92.38 C181.082075,87.7468038 184.808701,83.4638646 188.947477,79.6 C192.910638,75.8639684 197.393802,72.7213749 202.257477,70.27 C210.070799,66.0613199 218.77446,63.7748521 227.647477,63.6 C235.839752,63.421745 243.963025,65.1326282 251.387477,68.6 C258.795424,72.1500158 265.209486,77.478463 270.057477,84.11 C275.349374,91.375771 278.832369,99.7987229 280.217477,108.68 C281.095615,114.542013 281.599967,120.45395 281.727477,126.38 C281.788622,132.238848 281.188153,138.085872 279.937477,143.81 C277.866229,152.984259 274.098175,161.690466 268.827477,169.48 C263.479248,177.743139 256.707688,184.992094 248.827477,190.89 C241.279426,196.553356 232.554019,200.446125 223.297477,202.28 C214.057477,204.113333 204.77081,202.65 195.437477,197.89 C191.392339,195.981662 187.569356,193.634216 184.037477,190.89 C180.570235,188.152078 177.480135,184.967829 174.847477,181.42 C171.832863,177.577403 169.381528,173.324608 167.567477,168.79 C165.808524,164.329797 164.387843,159.743504 163.317477,155.07 C162.031573,150.020477 161.555647,144.798793 161.907477,139.6 C162.25393,134.490622 162.894996,129.405499 163.827477,124.37 L164.097477,122.71 Z M197.037477,128.47 C196.487477,131.4 196.037477,134.28 195.667477,137.12 C195.297448,139.991462 195.297448,142.898538 195.667477,145.77 C196.15605,149.778506 197.315567,153.676242 199.097477,157.3 C200.667817,160.568772 203.024957,163.396653 205.957477,165.53 C208.809389,167.552555 212.211348,168.655139 215.707477,168.69 C219.367477,168.783333 223.30081,167.64 227.507477,165.26 C232.84081,162.146667 237.417477,157.34 241.237477,150.84 C244.979812,144.628787 247.409783,137.716641 248.377477,130.53 C249.313361,123.784038 248.557352,116.911229 246.177477,110.53 C243.797477,104.216667 239.13081,99.6866667 232.177477,96.94 C227.829353,96.897618 223.522642,97.7876034 219.547477,99.55 C215.825764,101.21579 212.437467,103.54355 209.547477,106.42 C206.610281,109.380373 204.114672,112.748266 202.137477,116.42 C200.032586,120.253007 198.32376,124.290528 197.037477,128.47 Z" id="Shape" fill="#ADBFFD"></path>
                <path d="M228.287477,63.6 C236.271473,63.535109 244.167323,65.2715124 251.387477,68.68 C258.795424,72.2300158 265.209486,77.558463 270.057477,84.19 C275.347686,91.4567171 278.830506,99.8792456 280.217477,108.76 C281.095615,114.622013 281.599967,120.53395 281.727477,126.46 C281.788622,132.318848 281.188153,138.165872 279.937477,143.89 C277.866229,153.064259 274.098175,161.770466 268.827477,169.56 C263.479248,177.823139 256.707688,185.072094 248.827477,190.97 C241.279426,196.633356 232.554019,200.526125 223.297477,202.36 C220.75858,202.865301 218.176169,203.12 215.587477,203.12 C208.555773,203.038208 201.646096,201.272211 195.437477,197.97 C191.392339,196.061662 187.569356,193.714216 184.037477,190.97 C180.570235,188.232078 177.480135,185.047829 174.847477,181.5 C171.832863,177.657403 169.381528,173.404608 167.567477,168.87 C165.808524,164.409797 164.387843,159.823504 163.317477,155.15 C162.023093,150.074706 161.547106,144.825339 161.907477,139.6 C162.25393,134.490622 162.894996,129.405499 163.827477,124.37 L164.097477,122.72 C165.400784,117.350102 167.195001,112.11139 169.457477,107.07 C171.756814,101.912757 174.560452,96.9955029 177.827477,92.39 C181.081522,87.7533175 184.808166,83.4670064 188.947477,79.6 C192.910638,75.8639684 197.393802,72.7213749 202.257477,70.27 C210.070799,66.0613199 218.77446,63.7748521 227.647477,63.6 L228.287477,63.6 M216.127477,168.69 C220.153619,168.550133 224.074636,167.368315 227.507477,165.26 C232.84081,162.146667 237.417477,157.34 241.237477,150.84 C244.979812,144.628787 247.409783,137.716641 248.377477,130.53 C249.313361,123.784038 248.557352,116.911229 246.177477,110.53 C243.797477,104.216667 239.13081,99.6866667 232.177477,96.94 C227.829353,96.897618 223.522642,97.7876034 219.547477,99.55 C215.825764,101.21579 212.437467,103.54355 209.547477,106.42 C206.610281,109.380373 204.114672,112.748266 202.137477,116.42 C200.037604,120.263365 198.335452,124.311002 197.057477,128.5 C196.507477,131.43 196.057477,134.31 195.687477,137.15 C195.317448,140.021462 195.317448,142.928538 195.687477,145.8 C196.17605,149.808506 197.335567,153.706242 199.117477,157.33 C200.687817,160.598772 203.044957,163.426653 205.977477,165.56 C208.829389,167.582555 212.231348,168.685139 215.727477,168.72 L216.147477,168.72 M228.287477,56.6 L227.577477,56.6 C217.615871,56.8092426 207.845624,59.3760314 199.067477,64.09 C193.628374,66.8457746 188.610991,70.3646773 184.167477,74.54 C179.684576,78.7322478 175.643434,83.3731934 172.107477,88.39 C168.602283,93.3771133 165.588219,98.6919125 163.107477,104.26 C160.675838,109.691995 158.747756,115.335654 157.347477,121.12 L157.287477,121.36 L157.287477,121.61 L157.017477,123.19 C156.051312,128.481611 155.38359,133.823383 155.017477,139.19 C154.609086,145.114871 155.132103,151.067138 156.567477,156.83 C157.723191,161.822617 159.247366,166.722707 161.127477,171.49 C163.17514,176.617354 165.939305,181.42855 169.337477,185.78 C172.298469,189.764426 175.764083,193.34769 179.647477,196.44 C183.560618,199.471026 187.788235,202.072637 192.257477,204.2 C199.432172,207.973121 207.401584,209.985183 215.507477,210.07 C218.552471,210.067217 221.59002,209.769155 224.577477,209.18 C234.852384,207.149834 244.544654,202.852028 252.947477,196.6 C261.497937,190.193262 268.844943,182.32147 274.647477,173.35 C280.387935,164.831472 284.494394,155.319812 286.757477,145.3 C288.111116,139.058902 288.761834,132.685883 288.697477,126.3 C288.569339,120.06887 288.03823,113.852556 287.107477,107.69 L287.107477,107.51 C285.524782,97.5451757 281.596895,88.0990532 275.647477,79.95 C270.11406,72.4121429 262.808797,66.3536174 254.377477,62.31 C246.215623,58.4843323 237.301197,56.5333408 228.287477,56.6 L228.287477,56.6 Z M203.847477,130.2 C204.967551,126.598355 206.444897,123.117713 208.257477,119.81 C209.918645,116.715031 212.013103,113.873034 214.477477,111.37 C216.79444,109.091849 219.504847,107.25216 222.477477,105.94 C225.122012,104.737029 227.974579,104.057847 230.877477,103.94 C234.938055,105.577411 238.126374,108.841901 239.667477,112.94 C241.653431,118.258387 242.27235,123.990264 241.467477,129.61 C240.617688,135.855512 238.50109,141.861615 235.247477,147.26 C232.047477,152.67 228.247477,156.68 224.057477,159.17 C221.680188,160.654939 218.966135,161.514905 216.167477,161.67 L215.927477,161.67 C213.827123,161.66179 211.779276,161.012898 210.057477,159.81 C208.057987,158.342468 206.459081,156.396272 205.407477,154.15 C203.970756,151.223847 203.037678,148.0764 202.647477,144.84 C202.357509,142.569219 202.357509,140.270781 202.647477,138 C202.977477,135.44 203.397477,132.79 203.887477,130.13 L203.847477,130.2 Z" id="Shape" fill="#000000"></path>
                <path d="M285.347477,122.71 C286.647336,117.340373 288.438209,112.10165 290.697477,107.06 C293.004511,101.906659 295.807731,96.9901396 299.067477,92.38 C302.325007,87.7491004 306.051381,83.4664514 310.187477,79.6 C314.15241,75.8661446 318.635243,72.7237833 323.497477,70.27 C331.311649,66.0634766 340.01478,63.7771481 348.887477,63.6 C357.08634,63.4200999 365.216482,65.1309883 372.647477,68.6 C380.053846,72.1524763 386.467357,77.480465 391.317477,84.11 C396.606152,91.3765305 400.085725,99.7994983 401.467477,108.68 C402.355503,114.540848 402.859909,120.453424 402.977477,126.38 C403.042162,132.238481 402.445045,138.08553 401.197477,143.81 C399.122492,152.984741 395.35108,161.69087 390.077477,169.48 C384.734962,177.747598 377.962525,184.997491 370.077477,190.89 C362.529426,196.553356 353.804019,200.446125 344.547477,202.28 C335.28081,204.133333 325.98081,202.68 316.647477,197.92 C312.605812,196.011019 308.786212,193.663591 305.257477,190.92 C301.787101,188.182314 298.693664,184.998091 296.057477,181.45 C293.049417,177.604744 290.601726,173.352429 288.787477,168.82 C287.025197,164.360048 285.601173,159.773755 284.527477,155.1 C283.248478,150.039197 282.782657,144.807156 283.147477,139.6 C283.498869,134.491102 284.1399,129.406261 285.067477,124.37 L285.347477,122.71 Z M318.287477,128.47 C317.74081,131.396667 317.28081,134.28 316.907477,137.12 C316.547424,139.992093 316.547424,142.897907 316.907477,145.77 C317.3992,149.7791 318.562106,153.676863 320.347477,157.3 C321.911392,160.572898 324.269741,163.40223 327.207477,165.53 C330.055143,167.553507 333.454248,168.656296 336.947477,168.69 C340.607477,168.783333 344.544143,167.64 348.757477,165.26 C354.057477,162.146667 358.63081,157.34 362.477477,150.84 C366.234728,144.633211 368.675288,137.719995 369.647477,130.53 C370.583361,123.784038 369.827352,116.911229 367.447477,110.53 C365.067477,104.216667 360.40081,99.6866667 353.447477,96.94 C349.102597,96.8978082 344.799186,97.7878163 340.827477,99.55 C337.102911,101.210702 333.713741,103.539062 330.827477,106.42 C327.890281,109.380373 325.394672,112.748266 323.417477,116.42 C321.298142,120.249809 319.579064,124.287798 318.287477,128.47 L318.287477,128.47 Z" id="Shape" fill="#92EBEB"></path>
                <path d="M349.537477,63.6 C357.51845,63.5109941 365.417065,65.2199115 372.647477,68.6 C380.053846,72.1524763 386.467357,77.480465 391.317477,84.11 C396.604463,91.3774761 400.083861,99.8000204 401.467477,108.68 C402.355503,114.540848 402.859909,120.453424 402.977477,126.38 C403.042162,132.238481 402.445045,138.08553 401.197477,143.81 C399.122492,152.984741 395.35108,161.69087 390.077477,169.48 C384.734962,177.747598 377.962525,184.997491 370.077477,190.89 C362.529426,196.553356 353.804019,200.446125 344.547477,202.28 C342.008723,202.786263 339.426216,203.040002 336.837477,203.040002 C329.794694,202.973841 322.8707,201.217979 316.647477,197.92 C312.605812,196.011019 308.786212,193.663591 305.257477,190.92 C301.787101,188.182314 298.693664,184.998091 296.057477,181.45 C293.049417,177.604744 290.601726,173.352429 288.787477,168.82 C287.025197,164.360048 285.601173,159.773755 284.527477,155.1 C283.248478,150.039197 282.782657,144.807156 283.147477,139.6 C283.498869,134.491102 284.1399,129.406261 285.067477,124.37 L285.347477,122.72 C286.647336,117.350373 288.438209,112.11165 290.697477,107.07 C293.004511,101.916659 295.807731,97.0001396 299.067477,92.39 C302.324458,87.7556149 306.050849,83.4695945 310.187477,79.6 C314.15241,75.8661446 318.635243,72.7237833 323.497477,70.27 C331.311649,66.0634766 340.01478,63.7771481 348.887477,63.6 L349.537477,63.6 M337.367477,168.69 C341.396812,168.550487 345.321148,167.368708 348.757477,165.26 C354.057477,162.146667 358.63081,157.34 362.477477,150.84 C366.234728,144.633211 368.675288,137.719995 369.647477,130.53 C370.583361,123.784038 369.827352,116.911229 367.447477,110.53 C365.067477,104.216667 360.40081,99.6866667 353.447477,96.94 C349.102597,96.8978082 344.799186,97.7878163 340.827477,99.55 C337.102911,101.210702 333.713741,103.539062 330.827477,106.42 C327.890281,109.380373 325.394672,112.748266 323.417477,116.42 C321.31348,120.261377 319.611146,124.309446 318.337477,128.5 C317.79081,131.426667 317.33081,134.31 316.957477,137.15 C316.597424,140.022093 316.597424,142.927907 316.957477,145.8 C317.4492,149.8091 318.612106,153.706863 320.397477,157.33 C321.961392,160.602898 324.319741,163.43223 327.257477,165.56 C330.105143,167.583507 333.504248,168.686296 336.997477,168.72 L337.417477,168.72 M349.537477,56.6 L348.817477,56.6 C338.858949,56.8085426 329.091787,59.3754215 320.317477,64.09 C314.874854,66.8449593 309.854058,70.3638942 305.407477,74.54 C300.927295,78.7348713 296.886407,83.375526 293.347477,88.39 C289.839994,93.375664 286.8258,98.6906916 284.347477,104.26 C281.908193,109.689985 279.976624,115.334049 278.577477,121.12 L278.517477,121.36 L278.517477,121.61 L278.257477,123.19 C277.286388,128.480853 276.618632,133.822905 276.257477,139.19 C275.839055,145.114961 276.36221,151.068799 277.807477,156.83 C278.955234,161.823619 280.476172,166.72405 282.357477,171.49 C284.409127,176.615424 287.17298,181.426078 290.567477,185.78 C293.568304,189.802695 297.081305,193.416547 301.017477,196.53 C304.930618,199.561026 309.158235,202.162637 313.627477,204.29 C320.802585,208.062041 328.771733,210.074037 336.877477,210.16 C339.922471,210.157217 342.96002,209.859155 345.947477,209.27 C356.188078,207.196603 365.838358,202.868495 374.197477,196.6 C382.748846,190.207905 390.102126,182.353573 395.917477,173.4 C401.662043,164.883718 405.768847,155.371262 408.027477,145.35 C409.385873,139.109659 410.036646,132.736103 409.967477,126.35 C409.83788,120.119338 409.310138,113.903331 408.387477,107.74 L408.387477,107.65 L408.387477,107.56 C406.806686,97.5980787 402.886093,88.1530125 396.947477,80 C391.409324,72.4423184 384.093498,66.3664044 375.647477,62.31 C367.487011,58.464343 358.568529,56.4961263 349.547477,56.5489232 L349.537477,56.6 Z M325.097477,130.2 C326.218381,126.60021 327.692207,123.119972 329.497477,119.81 C331.165506,116.716801 333.262978,113.875282 335.727477,111.37 C338.04444,109.091849 340.754847,107.25216 343.727477,105.94 C346.368507,104.737083 349.217795,104.057872 352.117477,103.94 C356.178055,105.577411 359.366374,108.841901 360.907477,112.94 C362.876148,118.259373 363.474523,123.988637 362.647477,129.6 C361.793036,135.844387 359.67676,141.849574 356.427477,147.25 C353.227477,152.66 349.427477,156.67 345.227477,159.16 C342.850739,160.64613 340.136371,161.506195 337.337477,161.66 L337.097477,161.66 C335.000238,161.651665 332.95562,161.00269 331.237477,159.8 C329.237563,158.330285 327.635874,156.384886 326.577477,154.14 C325.144217,151.213226 324.214527,148.065805 323.827477,144.83 C323.537509,142.559219 323.537509,140.260781 323.827477,137.99 C324.157477,135.43 324.567477,132.78 325.067477,130.12 L325.097477,130.2 Z" id="Shape" fill="#000000"></path>
                <path d="M533.407477,166.35 C536.514143,171.683333 537.567477,176.443333 536.567477,180.63 C535.805943,184.465574 533.591747,187.858525 530.387477,190.1 C527.012806,192.27069 522.971031,193.157822 518.997477,192.6 C514.504143,192.14 510.17081,189.806667 505.997477,185.6 C501.767364,188.621991 497.153427,191.066839 492.277477,192.87 C487.333364,194.662842 482.292016,196.175246 477.177477,197.4 C469.349433,199.236163 461.187479,199.095262 453.427477,196.99 C438.483857,192.982331 425.954798,182.799061 418.977477,168.99 C415.316331,161.884185 413.267661,154.058266 412.977477,146.07 C412.404528,137.233375 413.098217,128.360224 415.037477,119.72 C416.84482,111.588826 419.95135,103.80224 424.237477,96.66 C428.502631,89.6451254 434.154642,83.5745735 440.847477,78.82 C448.132249,73.6947273 456.404521,70.1426567 465.137477,68.39 C470.572151,67.2882884 476.10228,66.7255618 481.647477,66.71 C487.209032,66.7102974 492.761122,67.168512 498.247477,68.08 C498.067477,64.08 497.927477,59.43 497.837477,54.22 C497.747477,49.01 497.707477,43.93 497.707477,38.98 C497.707477,34.03 497.887477,29.61 498.247477,25.67 C498.431445,22.8400145 498.900487,20.0358123 499.647477,17.3 C500.756286,14.2172244 502.824131,11.5710844 505.547477,9.75 C508.025154,8.06812176 510.925104,7.11533074 513.917477,7 C516.946604,6.93849343 519.935813,7.69875463 522.567477,9.2 C525.454676,10.8119445 527.79467,13.2494384 529.287477,16.2 C529.655208,17.1157402 530.117725,17.9905005 530.667477,18.81 C531.194672,19.5789058 531.480208,20.4877455 531.487477,21.42 C531.667477,45.42 531.714143,69.1166667 531.627477,92.51 C531.54081,115.903333 531.494143,139.603333 531.487477,163.61 C532.217477,164.71 532.857477,165.6 533.407477,166.35 Z M495.247477,151.26 C495.799738,150.560507 496.504273,149.996195 497.307477,149.61 C498.199358,149.237063 498.790136,148.376326 498.817477,147.41 L498.817477,124.77 C498.817477,117.356667 498.727477,109.806667 498.547477,102.12 C494.023859,101.194063 489.431675,100.642198 484.817477,100.47 C480.155692,100.280175 475.490309,100.744694 470.957477,101.85 C466.555163,102.918333 462.383922,104.778618 458.647477,107.34 C454.718244,110.115639 451.63153,113.922125 449.727477,118.34 C448.627477,121.806667 447.627477,125.283333 446.727477,128.77 C445.833456,132.083583 445.326738,135.489669 445.217477,138.92 C445.121727,142.214007 445.536643,145.502977 446.447477,148.67 C447.425411,151.994588 449.008599,155.110113 451.117477,157.86 C451.92524,158.664141 452.798225,159.39999 453.727477,160.06 C454.727477,160.79 456.727477,162.06 459.627477,163.9 C466.140791,164.475692 472.704299,163.82443 478.977477,161.98 C485.297711,160.000851 490.935081,156.286493 495.247477,151.26 L495.247477,151.26 Z" id="Shape" fill="#95F1C5"></path>
                <path d="M514.397477,7 C517.263539,7.02696494 520.075414,7.78414058 522.567477,9.2 C525.454676,10.8119445 527.79467,13.2494384 529.287477,16.2 C529.655208,17.1157402 530.117725,17.9905005 530.667477,18.81 C531.194672,19.5789058 531.480208,20.4877455 531.487477,21.42 C531.667477,45.42 531.714143,69.1166667 531.627477,92.51 C531.54081,115.903333 531.494143,139.603333 531.487477,163.61 C532.217477,164.71 532.857477,165.61 533.407477,166.35 C536.514143,171.683333 537.567477,176.443333 536.567477,180.63 C535.805943,184.465574 533.591747,187.858525 530.387477,190.1 C527.698383,191.866706 524.534001,192.770317 521.317477,192.69 C520.567477,192.69 519.797477,192.69 518.997477,192.57 C514.504143,192.11 510.17081,189.776667 505.997477,185.57 C501.767364,188.591991 497.153427,191.036839 492.277477,192.84 C487.333364,194.632842 482.292016,196.145246 477.177477,197.37 C473.472196,198.207776 469.686267,198.637005 465.887477,198.650047 C461.676609,198.656015 457.48461,198.087437 453.427477,196.96 C438.483857,192.952331 425.954798,182.769061 418.977477,168.96 C415.316331,161.854185 413.267661,154.028266 412.977477,146.04 C412.404528,137.203375 413.098217,128.330224 415.037477,119.69 C416.84482,111.558826 419.95135,103.77224 424.237477,96.63 C428.502631,89.6151254 434.154642,83.5445735 440.847477,78.79 C448.132249,73.6647273 456.404521,70.1126567 465.137477,68.36 C470.573153,67.2683626 476.103272,66.7156856 481.647477,66.71 C487.209032,66.7102974 492.761122,67.168512 498.247477,68.08 C498.067477,64.08 497.927477,59.43 497.837477,54.22 C497.747477,49.01 497.707477,43.93 497.707477,38.98 C497.707477,34.03 497.887477,29.61 498.247477,25.67 C498.431445,22.8400145 498.900487,20.0358123 499.647477,17.3 C500.756286,14.2172244 502.824131,11.5710844 505.547477,9.75 C508.024309,8.06775899 510.925329,7.11808205 513.917477,7.01 L514.397477,7.01 M464.207477,164.07 C469.18743,164.08721 474.143155,163.376362 478.917477,161.96 C485.257089,159.996497 490.916147,156.28848 495.247477,151.26 C495.799738,150.560507 496.504273,149.996195 497.307477,149.61 C498.199358,149.237063 498.790136,148.376326 498.817477,147.41 L498.817477,124.77 C498.817477,117.356667 498.727477,109.806667 498.547477,102.12 C494.023859,101.194063 489.431675,100.642198 484.817477,100.469889 C484.147477,100.469889 483.477477,100.469889 482.817477,100.469889 C478.824536,100.461508 474.845362,100.938337 470.967477,101.89 C466.564424,102.944919 462.389867,104.791619 458.647477,107.34 C454.718244,110.115639 451.63153,113.922125 449.727477,118.34 C448.627477,121.806667 447.627477,125.283333 446.727477,128.77 C445.833456,132.083583 445.326738,135.489669 445.217477,138.92 C445.121727,142.214007 445.536643,145.502977 446.447477,148.67 C447.425411,151.994588 449.008599,155.110113 451.117477,157.86 C451.92524,158.664141 452.798225,159.39999 453.727477,160.06 C454.727477,160.79 456.727477,162.06 459.627477,163.9 C461.187477,164.03 462.737477,164.09 464.267477,164.09 M514.397477,2.84217094e-14 L513.697477,2.84217094e-14 C509.414094,0.14998146 505.257829,1.4938406 501.697477,3.88 C497.752442,6.50356244 494.7441,10.3138952 493.107477,14.76 L493.047477,14.91 L493.047477,15.07 C492.122584,18.3124046 491.549283,21.6449215 491.337477,25.01 C490.957477,29.12 490.767477,33.81 490.767477,39.01 C490.767477,44.21 490.767477,49.3 490.897477,54.38 C490.897477,56.38 490.977477,58.3 491.027477,60.14 C487.927477,59.87 484.807477,59.74 481.707477,59.74 C475.663574,59.7406416 469.634443,60.3368557 463.707477,61.52 L463.597477,61.52 C453.927091,63.491145 444.768714,67.4404823 436.697477,73.12 C429.239858,78.4272238 422.941764,85.1982707 418.187477,93.02 C413.529187,100.803171 410.152755,109.28477 408.187477,118.14 C406.106753,127.413209 405.355897,136.93528 405.957477,146.42 C406.31699,155.408853 408.6451,164.209244 412.777477,172.2 C420.650503,187.733745 434.751467,199.191914 451.567477,203.72 C456.23583,205.004903 461.055526,205.657395 465.897477,205.66 C470.20364,205.643898 474.495373,205.161078 478.697477,204.22 L478.767477,204.22 L478.827477,204.22 C484.186223,202.916368 489.467814,201.313862 494.647477,199.42 C498.380977,198.051884 501.976939,196.334259 505.387477,194.29 C509.13957,197.175466 513.605461,198.98671 518.307477,199.53 C519.303989,199.635781 520.305366,199.689188 521.307477,199.69 C525.925053,199.775486 530.45929,198.453581 534.307477,195.9 C538.973834,192.690316 542.222584,187.804654 543.377477,182.26 C544.807477,176.26 543.487477,169.71 539.447477,162.82 L539.247477,162.47 L538.997477,162.14 C538.837477,161.93 538.667477,161.7 538.487477,161.44 C538.487477,137.65 538.487477,114.44 538.627477,92.54 C538.717477,69.32 538.627477,45.38 538.487477,21.39 C538.470622,19.0868369 537.774941,16.8397857 536.487477,14.93 C536.210956,14.5194653 535.979613,14.0802485 535.797477,13.62 L535.657477,13.26 L535.477477,12.92 C533.344445,8.76339904 530.023767,5.33481638 525.937477,3.07 C522.413042,1.0854738 518.44212,0.0290846654 514.397477,2.84217094e-14 L514.397477,2.84217094e-14 Z M456.217477,120.87 C457.598339,117.762608 459.787823,115.082735 462.557477,113.11 C465.624776,111.027826 469.042999,109.516897 472.647477,108.65 C475.982481,107.833696 479.404028,107.42405 482.837477,107.429936 C483.417477,107.429936 484.007477,107.429936 484.587477,107.429936 C486.997477,107.52 489.377477,107.72 491.697477,108.02 C491.797477,113.73 491.847477,119.33 491.847477,124.73 L491.847477,144.81 C491.097521,145.387822 490.425299,146.060044 489.847477,146.81 C486.416833,150.76475 481.948552,153.681256 476.947477,155.23 C472.821734,156.450949 468.540066,157.06406 464.237477,157.050236 C463.437477,157.050236 462.627477,157.050236 461.817477,156.99 C459.417477,155.48 458.327477,154.73 457.817477,154.37 C457.310749,154.009918 456.826512,153.619189 456.367477,153.2 C454.927876,151.237124 453.83539,149.042006 453.137477,146.71 C452.412364,144.233518 452.075035,141.659701 452.137477,139.08 C452.22912,136.18325 452.658695,133.307108 453.417477,130.51 C454.257477,127.32 455.187477,124.07 456.197477,120.85 L456.217477,120.87 Z" id="Shape" fill="#000000"></path>
                <path d="M588.777477,171.3 C590.900947,173.286428 592.622253,175.662985 593.847477,178.3 C595.176337,180.94843 595.926285,183.849365 596.047477,186.81 C596.156089,189.602564 595.491685,192.370912 594.127477,194.81 C592.754143,197.276667 590.327477,199.15 586.847477,200.43 C583.922975,201.360331 580.813118,201.549327 577.797477,200.98 C574.396802,200.394507 571.107635,199.284624 568.047477,197.69 C564.957748,196.116058 562.095128,194.131397 559.537477,191.79 C557.214961,189.702426 555.387262,187.123151 554.187477,184.24 C553.794012,183.220857 553.51562,182.160952 553.357477,181.08 C553.189367,180.034804 553.099119,178.978565 553.087477,177.92 L553.087477,25.53 C553.044569,21.4327652 554.798755,17.5223916 557.887477,14.83 C560.790352,12.0428936 564.480782,10.2168818 568.457477,9.6 C570.461089,9.44471993 572.474471,9.72795852 574.357477,10.43 C576.47835,11.1684445 578.472,12.2310496 580.267477,13.58 C582.042875,14.9108683 583.575351,16.5380668 584.797477,18.39 C585.942177,20.0942103 586.561125,22.0970989 586.577477,24.15 L586.577477,43.1 C586.577477,50.9733333 586.624143,59.5766667 586.717477,68.91 C586.81081,78.2433333 586.854143,87.91 586.847477,97.91 C586.847477,107.91 586.804143,117.47 586.717477,126.59 C586.63081,135.71 586.584143,144.083333 586.577477,151.71 C586.577477,159.303333 586.487477,165.386667 586.307477,169.96 L588.777477,171.3 Z" id="Path" fill="#FFE375"></path>
                <path d="M569.567477,9.6 C571.202413,9.62040917 572.822047,9.91796186 574.357477,10.48 C576.47835,11.2184445 578.472,12.2810496 580.267477,13.63 C582.042875,14.9608683 583.575351,16.5880668 584.797477,18.44 C585.942177,20.1442103 586.561125,22.1470989 586.577477,24.2 L586.577477,43.1 C586.577477,50.9733333 586.624143,59.5766667 586.717477,68.91 C586.81081,78.2433333 586.854143,87.91 586.847477,97.91 C586.847477,107.91 586.804143,117.47 586.717477,126.59 C586.63081,135.71 586.584143,144.083333 586.577477,151.71 C586.577477,159.303333 586.487477,165.386667 586.307477,169.96 L588.777477,171.34 C590.902266,173.325264 592.62377,175.702095 593.847477,178.34 C595.177272,180.984516 595.927313,183.882403 596.047477,186.84 C596.156089,189.632564 595.491685,192.400912 594.127477,194.84 C592.754143,197.306667 590.327477,199.18 586.847477,200.46 C585.082473,201.039861 583.235264,201.330281 581.377477,201.320264 C580.177542,201.317691 578.979948,201.213989 577.797477,201.01 C574.396802,200.424507 571.107635,199.314624 568.047477,197.72 C564.957748,196.146058 562.095128,194.161397 559.537477,191.82 C557.214961,189.732426 555.387262,187.153151 554.187477,184.27 C553.794012,183.250857 553.51562,182.190952 553.357477,181.11 C553.189367,180.064804 553.099119,179.008565 553.087477,177.95 L553.087477,25.53 C553.044569,21.4327652 554.798755,17.5223916 557.887477,14.83 C560.790352,12.0428936 564.480782,10.2168818 568.457477,9.6 C568.817477,9.6 569.187477,9.6 569.567477,9.6 M569.567477,2.6 C568.969668,2.59954596 568.372225,2.62958498 567.777477,2.69 L567.647477,2.69 L567.497477,2.69 C562.12773,3.50799252 557.137293,5.95086344 553.197477,9.69 C548.663227,13.7143454 546.083207,19.4975251 546.11714,25.56 L546.11714,177.88 C546.12846,179.297162 546.248818,180.711363 546.477477,182.11 C546.70834,183.723517 547.127879,185.304342 547.727477,186.82 C549.312557,190.656708 551.730915,194.092963 554.807477,196.88 C557.831238,199.659115 561.218956,202.014033 564.877477,203.88 C568.576358,205.816453 572.553883,207.16591 576.667477,207.88 C578.234362,208.138878 579.819367,208.272633 581.407477,208.280191 C584.019803,208.290366 586.61663,207.878386 589.097477,207.06 L589.197477,207.06 L589.307477,207.06 C594.387477,205.19 598.077477,202.23 600.307477,198.27 C602.278511,194.706721 603.226728,190.668144 603.047477,186.6 C602.88866,182.662555 601.904044,178.80245 600.157477,175.27 C598.53738,171.828767 596.273272,168.729621 593.487477,166.14 L593.427477,166.14 C593.527477,162.14 593.577477,157.28 593.577477,151.74 C593.577477,143.93 593.627477,135.5 593.717477,126.69 C593.807477,117.41 593.847477,107.69 593.847477,97.94 C593.847477,88.19 593.847477,78.38 593.717477,68.94 C593.627477,59.94 593.577477,51.29 593.577477,43.2 L593.577477,24.16 C593.55835,20.7551219 592.539512,17.4308591 590.647477,14.6 C588.983985,12.0561724 586.885224,9.82539317 584.447477,8.01 C582.077786,6.22653438 579.446745,4.81993934 576.647477,3.84 C574.369062,3.02043374 571.96872,2.5910768 569.547477,2.57 L569.567477,2.6 Z" id="Shape" fill="#000000"></path>
                <path d="M698.767477,151.53 C702.573934,150.43356 706.605812,150.385191 710.437477,151.39 C713.517662,152.209494 716.256736,153.988841 718.257477,156.47 C720.129939,158.998421 721.008888,162.126338 720.727477,165.26 C720.547477,168.726667 718.994143,172.393333 716.067477,176.26 C713.395973,179.618284 710.01986,182.349215 706.177477,184.26 C702.372702,186.27436 698.42941,188.015423 694.377477,189.47 C686.110106,192.579261 677.559824,194.876752 668.847477,196.33 C661.351843,197.611349 653.693111,197.611349 646.197477,196.33 C639.135938,195.032694 632.41262,192.310703 626.437477,188.33 C619.734797,183.749741 613.920322,177.98948 609.277477,171.33 C605.552358,166.253027 602.808614,160.524742 601.187477,154.44 C599.439447,148.13182 598.468919,141.633649 598.297477,135.09 C598.113102,128.551965 598.666599,122.013989 599.947477,115.6 C601.085886,109.639484 602.928816,103.835428 605.437477,98.31 C608.544143,91.8966667 613.484143,86.04 620.257477,80.74 C627.075084,75.4101037 634.665685,71.151139 642.767477,68.11 C650.860343,65.0317862 659.381566,63.2270141 668.027477,62.76 C676.627477,62.3 684.22081,63.6333333 690.807477,66.76 C696.311068,69.3334848 701.149089,73.1382085 704.947477,77.88 C708.748431,82.4752802 711.511488,87.8376577 713.047477,93.6 C714.507574,99.2115733 714.647908,105.085098 713.457477,110.76 C712.126382,116.809897 709.020594,122.325106 704.537477,126.6 C700.109923,131.065746 695.015934,134.817082 689.437477,137.72 C683.940986,140.56338 678.261838,143.03882 672.437477,145.13 C666.542109,147.248123 660.53269,149.034256 654.437477,150.48 C648.31081,151.953333 642.407477,153.6 636.727477,155.42 C640.125703,159.534996 644.739478,162.468489 649.907477,163.8 C654.98897,164.998151 660.250623,165.228836 665.417477,164.48 C671.034985,163.688199 676.52485,162.165291 681.747477,159.95 C687.029382,157.769895 692.163596,155.247884 697.117477,152.4 L698.767477,151.53 Z M643.317477,104.32 C639.443012,106.374123 636.213526,109.461692 633.987477,113.24 C631.987477,116.813333 630.524143,121.813333 629.597477,128.24 C634.35081,126.78 639.704143,125.223333 645.657477,123.57 C651.61081,121.916667 657.237477,120.18 662.537477,118.36 C667.212628,116.821155 671.71915,114.81081 675.987477,112.36 C679.647477,110.16 681.4775,107.78 681.4775,105.22 C681.480193,103.775231 681.247131,102.339701 680.787477,100.97 C680.34019,99.6044038 679.271514,98.5320179 677.907477,98.08 C672.802217,96.2597623 667.294567,95.8792086 661.987477,96.98 C657.204691,97.8214527 652.576041,99.3789447 648.257477,101.6 L643.317477,104.32 Z" id="Shape" fill="#FFC48C"></path>
                <path d="M671.267477,62.6 C678.00243,62.4867106 684.677848,63.877138 690.807477,66.67 C696.311068,69.2434848 701.149089,73.0482085 704.947477,77.79 C708.7599,82.4116538 711.523543,87.8058754 713.047477,93.6 C714.507574,99.2115733 714.647908,105.085098 713.457477,110.76 C712.126382,116.809897 709.020594,122.325106 704.537477,126.6 C700.109923,131.065746 695.015934,134.817082 689.437477,137.72 C683.940986,140.56338 678.261838,143.03882 672.437477,145.13 C666.542109,147.248123 660.53269,149.034256 654.437477,150.48 C648.31081,151.953333 642.407477,153.6 636.727477,155.42 C640.125703,159.534996 644.739478,162.468489 649.907477,163.8 C652.996782,164.535283 656.161878,164.904488 659.337477,164.9 C661.37129,164.897099 663.402583,164.756779 665.417477,164.48 C671.035172,163.689098 676.525153,162.166158 681.747477,159.95 C687.029382,157.769895 692.163596,155.247884 697.117477,152.4 L698.767477,151.58 C700.877808,151.031611 703.047177,150.74281 705.227477,150.72 C706.98978,150.707462 708.744626,150.949974 710.437477,151.44 C713.517662,152.259494 716.256736,154.038841 718.257477,156.52 C720.129939,159.048421 721.008888,162.176338 720.727477,165.31 C720.547477,168.776667 718.994143,172.443333 716.067477,176.31 C713.395973,179.668284 710.01986,182.399215 706.177477,184.31 C702.372702,186.32436 698.42941,188.065423 694.377477,189.52 C686.108855,192.627693 677.559055,194.928403 668.847477,196.39 C664.977911,197.008744 661.066175,197.326364 657.147477,197.340247 C653.459883,197.350403 649.778685,197.032481 646.147477,196.39 C639.087347,195.087855 632.364974,192.366247 626.387477,188.39 C619.684797,183.809741 613.870322,178.04948 609.227477,171.39 C605.502358,166.313027 602.758614,160.584742 601.137477,154.5 C599.389447,148.19182 598.418919,141.693649 598.247477,135.15 C598.075026,128.590075 598.64532,122.031698 599.947477,115.6 C601.085886,109.639484 602.928816,103.835428 605.437477,98.31 C608.544143,91.8966667 613.484143,86.04 620.257477,80.74 C627.075084,75.4101037 634.665685,71.151139 642.767477,68.11 C650.860343,65.0317862 659.381566,63.2270141 668.027477,62.76 C669.127477,62.7 670.207477,62.67 671.267477,62.67 M629.647477,128.2 C634.40081,126.74 639.754143,125.183333 645.707477,123.53 C651.66081,121.876667 657.287477,120.14 662.587477,118.32 C667.262628,116.781155 671.76915,114.77081 676.037477,112.32 C679.697477,110.12 681.52749,107.74 681.52749,105.18 C681.5295,103.732019 681.29647,102.29331 680.837477,100.92 C680.386115,99.5590819 679.318395,98.4913615 677.957477,98.04 C674.803489,96.9090968 671.478086,96.3306188 668.127477,96.33 C666.082368,96.3327959 664.042511,96.5371165 662.037477,96.94 C657.235346,97.7892158 652.5894,99.3603411 648.257477,101.6 L643.317477,104.35 C639.443012,106.404123 636.213526,109.491692 633.987477,113.27 C631.987477,116.843333 630.524143,121.843333 629.597477,128.27 M671.267477,55.6 C670.087477,55.6 668.867477,55.6 667.657477,55.7 C658.293411,56.2071347 649.064212,58.1602438 640.297477,61.49 C631.534082,64.8020746 623.323972,69.4246865 615.947477,75.2 C608.357477,81.2 602.707477,87.88 599.137477,95.2 L599.137477,95.25 L599.137477,95.31 C596.40192,101.34199 594.387984,107.675817 593.137477,114.18 C591.753652,121.110668 591.156539,128.175388 591.357477,135.24 C591.545108,142.341049 592.596167,149.39288 594.487477,156.24 C596.338836,163.142149 599.458624,169.639446 603.687477,175.4 C608.83805,182.742043 615.275167,189.091074 622.687477,194.14 C629.454102,198.61692 637.05665,201.678349 645.037477,203.14 C649.064117,203.859628 653.147045,204.217721 657.237477,204.210122 C661.523649,204.210122 665.803284,203.875491 670.037477,203.21 C679.177352,201.677837 688.148663,199.270083 696.827477,196.02 C701.181826,194.45697 705.41923,192.585562 709.507477,190.42 C714.254293,188.050996 718.422577,184.667893 721.717477,180.51 C725.497477,175.51 727.547477,170.51 727.807477,165.65 C728.191139,160.848828 726.799891,156.073754 723.897477,152.23 C721.010604,148.563702 717.020651,145.923601 712.517477,144.7 C710.17795,144.022647 707.753045,143.685855 705.317477,143.7 C702.564033,143.722757 699.823701,144.08209 697.157477,144.77 L696.417477,144.96 L695.727477,145.3 L694.077477,146.12 L693.897477,146.22 L693.717477,146.32 C689.017838,149.010817 684.151283,151.399003 679.147477,153.47 C674.484418,155.450772 669.583171,156.815591 664.567477,157.53 C662.863611,157.75865 661.14661,157.875566 659.427477,157.88 C657.905847,157.880653 656.385848,157.780433 654.877477,157.58 L656.157477,157.27 C662.4949,155.758034 668.744344,153.898558 674.877477,151.7 C680.964742,149.486856 686.900744,146.877954 692.647477,143.89 C698.865938,140.652773 704.546394,136.473388 709.487477,131.5 C714.928285,126.273967 718.694203,119.549611 720.307477,112.18 C721.711772,105.459368 721.544076,98.5051327 719.817477,91.86 C718.040021,85.1035011 714.819442,78.8124552 710.377477,73.42 C705.90541,67.8759063 700.223651,63.4290149 693.767477,60.42 C686.710757,57.1951686 679.025352,55.5795258 671.267477,55.69 L671.267477,55.6 Z M646.737477,110.38 L651.657477,107.65 C655.341042,105.769257 659.284368,104.448074 663.357477,103.73 C664.911174,103.41502 666.492179,103.25424 668.077477,103.25 C670.221521,103.25 672.354067,103.563206 674.407477,104.18 C674.417304,104.336513 674.417304,104.493487 674.407477,104.65 C673.801885,105.278919 673.103847,105.811721 672.337477,106.23 C668.49003,108.449182 664.42551,110.268666 660.207477,111.66 C655.077477,113.43 649.537477,115.14 643.737477,116.75 L639.357477,117.97 C639.577477,117.5 639.797477,117.05 640.027477,116.64 C641.629537,113.98056 643.934026,111.814478 646.687477,110.38 L646.737477,110.38 Z" id="Shape" fill="#000000"></path>
                <path d="M728.867477,170.6 C727.765192,167.566694 727.28234,164.343152 727.447477,161.12 C727.599441,158.14433 728.423385,155.241721 729.857477,152.63 C731.260855,150.092967 733.378497,148.024006 735.947477,146.68 C738.925752,145.209068 742.277917,144.668958 745.567477,145.13 C747.551418,145.292119 749.479443,145.867801 751.227477,146.82 C752.91504,147.761672 754.483004,148.903231 755.897477,150.22 C757.31081,151.553333 758.727477,152.97 760.147477,154.47 C764.147621,158.751619 769.156811,161.962727 774.717477,163.81 C778.414349,164.967237 782.200583,165.816799 786.037477,166.35 C788.331144,166.462509 790.589753,165.753369 792.407477,164.35 C793.939483,163.127503 795.068381,161.472482 795.647477,159.6 C796.21422,157.625549 796.357346,155.553625 796.067477,153.52 C795.890819,151.603021 795.153475,149.780528 793.947477,148.28 C790.741363,145.075832 786.648699,142.905849 782.197477,142.05 C777.840159,141.178825 773.539086,140.046787 769.317477,138.66 C763.557164,136.728586 757.970576,134.313307 752.617477,131.44 C747.249573,128.616336 742.676459,124.490218 739.317477,119.44 C735.839952,114.43679 733.651839,108.652203 732.947477,102.6 C732.277284,96.7596536 732.759733,90.8445526 734.367477,85.19 C735.97667,79.5106182 738.722116,74.2170441 742.437477,69.63 C746.184269,64.9312626 750.793388,60.9907715 756.017477,58.02 C760.032225,55.7433116 764.44441,54.2533507 769.017477,53.63 C773.751677,52.9744932 778.54295,52.833672 783.307477,53.21 C788.156635,53.5926263 792.950742,54.4944546 797.607477,55.9 C802.02553,57.2099013 806.365818,58.7690665 810.607477,60.57 C814.823377,62.3787883 818.380894,65.440557 820.797477,69.34 C822.959274,72.7721382 824.087519,76.7539752 824.047477,80.81 C823.989598,84.5218794 822.565482,88.0821711 820.047477,90.81 C817.50081,93.6433333 813.774143,95.06 808.867477,95.06 C806.053527,95.0999443 803.260663,94.5692662 800.657477,93.5 C798.21081,92.4666667 795.664143,91.4666667 793.017477,90.5 C789.477072,89.1489673 785.781818,88.2453099 782.017477,87.81 C778.057477,87.3433333 774.85081,87.58 772.397477,88.52 C771.38997,88.8786905 770.505465,89.5169213 769.847477,90.36 C768.865989,91.4601625 768.141797,92.7650743 767.727477,94.18 C767.253964,95.6420762 767.154262,97.1994799 767.437477,98.71 C767.814251,100.334754 768.921972,101.693558 770.437477,102.39 C775.0004,104.854324 779.845929,106.754926 784.867477,108.05 C789.967477,109.383333 794.967477,110.893333 799.867477,112.58 C804.672383,114.231709 809.277634,116.415262 813.597477,119.09 C818.023987,121.918078 821.671645,125.80983 824.207477,130.41 C828.256031,137.226415 830.451984,144.982922 830.577477,152.91 C830.724863,160.484781 829.126956,167.991867 825.907477,174.85 C822.6526,181.699661 817.799761,187.66711 811.757477,192.25 C805.437047,197.096965 797.892042,200.088651 789.967477,200.89 C784.193828,201.45645 778.367158,201.119063 772.697477,199.89 C766.986171,198.642678 761.464951,196.645355 756.277477,193.95 C751.036618,191.236502 746.104606,187.96414 741.567477,184.19 C737.237785,180.610789 733.256688,176.629692 729.677477,172.3 L728.867477,170.6 Z" id="Path" fill="#FFADDE"></path>
                <path d="M778.127477,52.98 C779.857477,52.98 781.607477,53.04 783.347477,53.18 C788.196635,53.5626263 792.990742,54.4644546 797.647477,55.87 C802.06553,57.1799013 806.405818,58.7390665 810.647477,60.54 C814.863377,62.3487883 818.420894,65.410557 820.837477,69.31 C822.999274,72.7421382 824.127519,76.7239752 824.087477,80.78 C824.029598,84.4918794 822.605482,88.0521711 820.087477,90.78 C817.54081,93.6133333 813.814143,95.03 808.907477,95.03 C806.093527,95.0699443 803.300663,94.5392662 800.697477,93.47 C798.25081,92.4366667 795.704143,91.4366667 793.057477,90.47 C789.518519,89.1143284 785.822674,88.2105263 782.057477,87.78 C780.8261,87.6338373 779.587478,87.5570494 778.347477,87.55 C776.336544,87.4989004 774.333322,87.8175177 772.437477,88.49 C771.42997,88.8486905 770.545465,89.4869213 769.887477,90.33 C768.905989,91.4301625 768.181797,92.7350743 767.767477,94.15 C767.293964,95.6120762 767.194262,97.1694799 767.477477,98.68 C767.854251,100.304754 768.961972,101.663558 770.477477,102.36 C775.0404,104.824324 779.885929,106.724926 784.907477,108.02 C790.007477,109.353333 795.007477,110.863333 799.907477,112.55 C804.712383,114.201709 809.317634,116.385262 813.637477,119.06 C818.063987,121.888078 821.711645,125.77983 824.247477,130.38 C828.296031,137.196415 830.491984,144.952922 830.617477,152.88 C830.764863,160.454781 829.166956,167.961867 825.947477,174.82 C822.6926,181.669661 817.839761,187.63711 811.797477,192.22 C805.477047,197.066965 797.932042,200.058651 790.007477,200.86 C788.157477,201.03 786.317477,201.120003 784.497477,201.120003 C780.543726,201.120003 776.601224,200.698814 772.737477,199.86 C767.026171,198.612678 761.504951,196.615355 756.317477,193.92 C751.076618,191.206502 746.144606,187.93414 741.607477,184.16 C737.277785,180.580789 733.296688,176.599692 729.717477,172.27 L728.867477,170.57 C727.761476,167.537639 727.278511,164.313337 727.447477,161.09 C727.599441,158.11433 728.423385,155.211721 729.857477,152.6 C731.260855,150.062967 733.378497,147.994006 735.947477,146.65 C738.208049,145.496015 740.720053,144.922137 743.257477,144.98 C744.028999,144.981365 744.799967,145.021416 745.567477,145.1 C747.551418,145.262119 749.479443,145.837801 751.227477,146.79 C752.91504,147.731672 754.483004,148.873231 755.897477,150.19 C757.31081,151.523333 758.727477,152.94 760.147477,154.44 C764.147621,158.721619 769.156811,161.932727 774.717477,163.78 C778.414349,164.937237 782.200583,165.786799 786.037477,166.32 C788.331144,166.432509 790.589753,165.723369 792.407477,164.32 C793.934561,163.105492 795.063019,161.461565 795.647477,159.6 C796.21422,157.625549 796.357346,155.553625 796.067477,153.52 C795.890819,151.603021 795.153475,149.780528 793.947477,148.28 C790.741363,145.075832 786.648699,142.905849 782.197477,142.05 C777.840159,141.178825 773.539086,140.046787 769.317477,138.66 C763.557164,136.728586 757.970576,134.313307 752.617477,131.44 C747.249573,128.616336 742.676459,124.490218 739.317477,119.44 C735.839952,114.43679 733.651839,108.652203 732.947477,102.6 C732.277284,96.7596536 732.759733,90.8445526 734.367477,85.19 C735.978742,79.5114394 738.723981,74.2182646 742.437477,69.63 C746.184269,64.9312626 750.793388,60.9907715 756.017477,58.02 C760.032225,55.7433116 764.44441,54.2533507 769.017477,53.63 C772.022768,53.2131944 775.053422,53.0060273 778.087477,53.01 M778.087477,46.01 C774.742294,46.011265 771.401131,46.2418052 768.087477,46.7 C762.628148,47.4444855 757.360793,49.2228964 752.567477,51.94 C746.581243,55.354442 741.294968,59.8705088 736.987477,65.25 C732.698107,70.5626501 729.52172,76.6841675 727.647477,83.25 C725.805394,89.7774049 725.251762,96.6010117 726.017477,103.34 C726.838726,110.524257 729.421903,117.394409 733.537477,123.34 C737.536244,129.337042 742.971067,134.239039 749.347477,137.6 C755.045708,140.662154 760.993757,143.234736 767.127477,145.29 C771.614667,146.765497 776.186181,147.970987 780.817477,148.9 C783.785891,149.447868 786.534706,150.836158 788.737477,152.9 C788.961104,153.361481 789.099978,153.859395 789.147477,154.37 C789.31208,155.428071 789.247282,156.509165 788.957477,157.54 C788.784989,158.108296 788.434417,158.606107 787.957477,158.96 C787.506932,159.215531 786.995267,159.343447 786.477477,159.33 C783.208253,158.845302 779.981805,158.106395 776.827477,157.12 C773.931964,156.179333 771.224163,154.737429 768.827477,152.86 L768.827477,152.86 L768.827477,152.86 C767.577332,151.921516 766.41581,150.870455 765.357477,149.72 C763.827477,148.1 762.297477,146.57 760.777477,145.15 C758.961378,143.447768 756.946872,141.970463 754.777477,140.75 C752.185251,139.325155 749.324329,138.456661 746.377477,138.2 C745.377477,138.1 744.377477,138.05 743.377477,138.05 C739.643533,137.986475 735.953616,138.863389 732.647477,140.6 C728.893561,142.576056 725.799809,145.607237 723.747477,149.32 C721.804935,152.847191 720.686939,156.768723 720.477477,160.79 C720.247579,164.946294 720.859829,169.10619 722.277477,173.02 L722.417477,173.43 L722.617477,173.82 L723.467477,175.52 L723.817477,176.22 L724.307477,176.82 C728.163375,181.479176 732.456274,185.758681 737.127477,189.6 C742.060435,193.706202 747.425305,197.263781 753.127477,200.21 C758.858386,203.187077 764.957972,205.392881 771.267477,206.77 C775.620562,207.716375 780.062707,208.192439 784.517477,208.190009 C786.517477,208.190009 788.637477,208.09 790.697477,207.89 L790.817477,207.89 C800.007127,206.960101 808.758474,203.498334 816.097477,197.89 C823.014074,192.609524 828.568382,185.752354 832.297477,177.89 C835.965122,170.07443 837.791928,161.52197 837.637477,152.89 C837.49543,143.758302 834.975967,134.821274 830.327477,126.96 C827.203791,121.367806 822.735863,116.642113 817.327477,113.21 C812.565299,110.255191 807.48693,107.843469 802.187477,106.02 C797.187477,104.27 791.907477,102.7 786.657477,101.33 C782.399121,100.235172 778.281743,98.6513067 774.387477,96.61 C774.402536,96.5147909 774.42596,96.4210948 774.457477,96.33 C774.57218,95.888812 774.784007,95.4788253 775.077477,95.13 L775.157477,95.04 C776.196591,94.7397991 777.276439,94.6048181 778.357477,94.64 C779.323448,94.6450399 780.288346,94.7051374 781.247477,94.82 C784.440951,95.1791108 787.575973,95.9418654 790.577477,97.09 L790.657477,97.09 L790.747477,97.09 C793.257477,97.99 795.747477,98.94 798.027477,99.92 C801.491054,101.353837 805.209074,102.071588 808.957477,102.03 C815.957477,102.03 821.417477,99.82 825.337477,95.47 C828.978069,91.4872715 831.028008,86.3054804 831.097477,80.91 C831.16801,75.5280165 829.692993,70.2387807 826.847477,65.67 C823.70755,60.5598717 819.075986,56.5356112 813.577477,54.14 L813.497477,54.14 L813.407477,54.14 C808.916747,52.2374449 804.32287,50.5881896 799.647477,49.2 C794.517369,47.6497888 789.238246,46.6442416 783.897477,46.2 C781.967477,46.05 780.027477,45.98 778.117477,45.98 L778.087477,46.01 Z" id="Shape" fill="#000000"></path>
            </g>
        </g>
    </g>
</svg>