<svg width="46" height="45" fill="rgb(173, 153, 153)" xmlns="http://www.w3.org/2000/svg" class="MuiSvgIcon-root MuiSvgIcon-fontSizeMedium css-3pgpby" focusable="false" aria-hidden="true"><path d="M40.088 22.829a8.629 8.629 0 0 1-5.712-2.16c-1.536 1.344-3.552 2.16-5.664 2.16-2.16 0-4.176-.768-5.712-2.16-1.584 1.344-3.6 2.16-5.712 2.16-2.16 0-4.176-.768-5.712-2.16-1.584 1.344-3.6 2.16-5.712 2.16a8.517 8.517 0 0 1-2.688-.432 5.458 5.458 0 0 1-1.44-.624v21.072c0 .96.816 1.776 1.776 1.776h22.176V29.165c0-.336.288-.576.576-.576h9.216c.336 0 .576.288.576.576V44.62h6.336c.96 0 1.776-.816 1.776-1.776V21.773c-.432.288-.912.48-1.44.624a8.013 8.013 0 0 1-2.64.432ZM20.264 34.78a.584.584 0 0 1-.576.576H10.52a.584.584 0 0 1-.576-.576v-5.616c0-.336.288-.576.576-.576h9.12c.336 0 .576.288.576.576v5.616h.048ZM44.696 10.301l-6.192-8.688c-.576-.768-1.44-1.248-2.4-1.248H9.944c-.96 0-1.872.48-2.4 1.248l-6.24 8.688A6.07 6.07 0 0 0 .2 13.805c0 2.544 1.488 4.992 3.888 5.712 2.688.816 5.232-.288 6.576-2.304.432-.672 1.392-.672 1.872 0 1.008 1.536 2.784 2.592 4.752 2.592 2.016 0 3.744-1.008 4.752-2.592.432-.672 1.392-.672 1.872 0 1.008 1.536 2.784 2.592 4.752 2.592 2.016 0 3.744-1.008 4.752-2.592.432-.672 1.392-.672 1.872 0 1.296 2.016 3.84 3.12 6.576 2.304 2.4-.72 3.888-3.216 3.888-5.712.048-1.248-.336-2.448-1.056-3.504Z"></path></svg>