<svg width="46" height="46" fill="white" xmlns="http://www.w3.org/2000/svg" class="MuiSvgIcon-root MuiSvgIcon-fontSizeMedium css-ki890s" focusable="false" aria-hidden="true"><path d="m44.936 14.264-2.832-2.832c-.384-.384-1.056-.48-1.536-.192-1.68 1.056-3.792.816-5.184-.576-1.392-1.392-1.632-3.552-.576-5.184.288-.48.24-1.104-.192-1.536l-2.832-2.832c-1.152-1.152-3.072-1.152-4.224 0l-7.2 7.2 2.976 2.976-1.728 1.728-2.976-2.976-17.52 17.52c-1.152 1.152-1.152 3.072 0 4.224l2.832 2.832c.384.384 1.008.48 1.488.192 1.632-1.008 3.744-.72 5.136.624a4.202 4.202 0 0 1 .624 5.136c-.288.48-.24 1.104.192 1.488l2.88 2.88a2.978 2.978 0 0 0 2.112.864c.768 0 1.536-.288 2.112-.864l17.52-17.52-2.976-2.976 1.728-1.728 2.976 2.976 7.2-7.2c1.152-1.152 1.152-3.072 0-4.224Zm-21.696.432 1.728-1.728 3.216 3.216-1.728 1.728-3.216-3.216Zm8.064 8.064-3.216-3.216 1.728-1.728 3.216 3.216-1.728 1.728Z"></path></svg>