<svg width="46" height="45" fill="rgb(173, 153, 153)" xmlns="http://www.w3.org/2000/svg" class="MuiSvgIcon-root MuiSvgIcon-fontSizeMedium css-3pgpby" focusable="false" aria-hidden="true"><path d="M15.176 15.821c.864.864 1.584 1.584 2.448 1.968 2.256 1.008 5.664.288 6.336.144a1.93 1.93 0 0 0 1.44-2.304c-.24-1.008-1.248-1.68-2.256-1.44-1.152.24-3.168.432-3.936.096-.24-.144-.864-.768-1.248-1.152-1.392-1.392-3.12-3.168-5.376-3.264l-1.728 4.464-.672-2.88h.048a.43.43 0 0 0 .432-.432v-.768a.43.43 0 0 0-.432-.432h-.96a.43.43 0 0 0-.432.432v.768c0 .24.192.432.432.432h.048l-.672 2.88-1.68-4.464c-3.6.144-5.664 4.752-6.096 6.384C.536 17.55.296 21.773.2 23.07c-.048 1.056.768 1.968 1.824 2.016h.096c1.008 0 1.872-.816 1.92-1.824.096-2.4.384-5.376.528-6 .144-.528.432-1.152.816-1.776l.192 9.264L3.08 42.365c-.192 1.2.672 2.352 1.92 2.496 1.2.192 2.352-.672 2.496-1.92l2.256-16.128 2.256 16.176c.144 1.104 1.104 1.92 2.208 1.92h.336c1.2-.192 2.064-1.296 1.872-2.496l-2.448-17.616.192-9.984c.384.336.72.72 1.008 1.008ZM9.752 9.005a4.464 4.464 0 1 0 0-8.928 4.464 4.464 0 0 0 0 8.928Z"></path><path d="M43.4 41.357v-16.32a2.021 2.021 0 0 0 1.056-1.776 2.028 2.028 0 0 0-2.016-2.016 2.028 2.028 0 0 0-2.016 2.016c-.24.096-.48.192-.768.288-4.32 1.632-10.176 1.632-14.496 0-.24 0-.48-.096-.72-.192a2.028 2.028 0 0 0-2.016-2.016 2.028 2.028 0 0 0-2.016 2.016c0 .768.432 1.44 1.056 1.776v16.32a3.44 3.44 0 0 0-2.4 2.688.506.506 0 0 0 .48.576h5.76a.506.506 0 0 0 .48-.576 3.44 3.44 0 0 0-2.4-2.688v-16.32c.144-.096.288-.192.384-.288.288.096.576.24.864.336 2.352.864 5.04 1.344 7.824 1.344s5.472-.48 7.824-1.344c.288-.096.576-.24.864-.336.144.096.24.192.432.288v16.32a3.44 3.44 0 0 0-2.4 2.688.506.506 0 0 0 .48.576h5.76a.506.506 0 0 0 .48-.576c-.336-1.392-1.296-2.4-2.496-2.784Z"></path></svg>