<svg width="48" height="48" fill="white" xmlns="http://www.w3.org/2000/svg" class="MuiSvgIcon-root MuiSvgIcon-fontSizeMedium css-6syrh2" focusable="false" aria-hidden="true"><path d="M42.528 4.176c-1.2.288-2.16 1.2-2.496 2.4-.384 1.344.096 2.688 1.056 3.552-1.296 1.776-3.36 2.88-5.52 2.88-2.592 0-4.944-1.488-6.096-3.84 1.152-.576 1.92-1.728 1.92-3.024a3.429 3.429 0 0 0-4.368-3.312c-1.2.336-2.16 1.344-2.4 2.544-.384 1.728.576 3.312 2.064 3.936a6.814 6.814 0 0 1-6.048 3.696 6.787 6.787 0 0 1-5.568-2.928 3.32 3.32 0 0 0 1.152-2.496 3.429 3.429 0 0 0-4.368-3.312c-1.2.288-2.16 1.296-2.448 2.496-.48 2.16 1.056 4.08 3.072 4.224l4.176 10.512c.192.528.72.864 1.296.864h20.4c.576 0 1.056-.336 1.296-.864l4.176-10.56c1.728-.192 3.024-1.632 3.024-3.408-.048-2.16-2.064-3.84-4.32-3.36ZM1.392 38.4c-.336.432-.24 1.056.192 1.392l7.104 5.328c.432.336 1.056.24 1.392-.192l2.88-3.84-8.688-6.528-2.88 3.84ZM38.784 25.632l-6.48 2.016v.432a4.14 4.14 0 0 1-3.264 3.84l-.432.096c-2.4.528-4.8.816-7.248.912l-1.968.096c-.672 0-1.2-.48-1.2-1.152-.048-.672.48-1.2 1.152-1.248l1.968-.096a40.108 40.108 0 0 0 6.816-.864l.432-.096c.768-.144 1.344-.864 1.392-1.632 0-.48-.144-.912-.48-1.296a2.017 2.017 0 0 0-1.248-.576l-10.416-.336a5.18 5.18 0 0 0-3.216.96L6 32.928l8.88 6.672 8.736.816a5.82 5.82 0 0 0 4.224-1.248l12.816-10.032c.48-.384.768-.912.768-1.488a1.986 1.986 0 0 0-.576-1.584c-.48-.48-1.296-.672-2.064-.432Z"></path></svg>