<svg width="47" height="48" fill="rgb(173, 153, 153)" xmlns="http://www.w3.org/2000/svg" class="MuiSvgIcon-root MuiSvgIcon-fontSizeMedium css-3pgpby" focusable="false" aria-hidden="true"><path d="M23.5.493C10.542.493 0 11.035 0 23.993s10.542 23.5 23.5 23.5S47 36.951 47 23.993 36.458.493 23.5.493Zm8.617 30.55a6.875 6.875 0 0 1-6.52 4.7H18.8a7.05 7.05 0 0 1-7.05-7.05v-2.35h4.7c0 1.4.585 2.35 1.99 2.35h5.06v-2.35h-4.7c6.063-5.21 0-14.1 0-14.1l4.7 1.342v-2.517a1.175 1.175 0 0 1 2.35 0v3.19c11.118 6.076 2.35 12.085 2.35 12.085h-2.35v2.35h3.525l3.525-2.35h4.7v2.35c-2.096.465-5.013.907-5.483 2.35Zm-15.667-7.05H9.4l7.778-9.872c3.892 5.005-.728 9.872-.728 9.872Z"></path></svg>